<svg xmlns="http://www.w3.org/2000/svg" version="1.1" xmlns:xlink="http://www.w3.org/1999/xlink" xmlns:svgjs="http://svgjs.com/svgjs" width="1440" height="560" preserveAspectRatio="none" viewBox="0 0 1440 560"><g mask="url(&quot;#SvgjsMask1008&quot;)" fill="none"><path d="M1488 560L0 560 L0 317.27Q54.62 251.88, 120 306.5Q213.09 279.59, 240 372.67Q284.78 297.45, 360 342.22Q364.92 275.14, 432 280.06Q497.67 225.73, 552 291.39Q605.71 273.1, 624 326.8Q696.47 279.27, 744 351.74Q759.6 295.34, 816 310.93Q886.13 261.06, 936 331.2Q978 253.2, 1056 295.21Q1122.37 241.58, 1176 307.95Q1245.39 257.34, 1296 326.73Q1336.64 247.37, 1416 288.01Q1460.66 260.67, 1488 305.34z" fill="#182f5d"></path><path d="M1536 560L0 560 L0 382.56Q43.15 353.71, 72 396.86Q132.99 385.85, 144 446.83Q166.99 397.81, 216 420.8Q264.2 349, 336 397.21Q381.75 322.95, 456 368.7Q508.83 301.53, 576 354.37Q669.5 327.87, 696 421.37Q717.46 370.83, 768 392.29Q848.54 352.83, 888 433.37Q910.02 383.39, 960 405.42Q998.11 323.53, 1080 361.65Q1121.05 330.69, 1152 371.74Q1212.7 360.44, 1224 421.15Q1271.22 348.38, 1344 395.6Q1361.59 341.19, 1416 358.78Q1483.11 305.88, 1536 372.99z" fill="#25467d"></path><path d="M1488 560L0 560 L0 426.22Q91.45 397.68, 120 489.13Q193.87 443, 240 516.86Q252.99 457.85, 312 470.84Q386.42 425.26, 432 499.68Q458.59 454.27, 504 480.86Q537 393.86, 624 426.86Q670.04 400.9, 696 446.94Q785.89 416.83, 816 506.72Q828.13 446.85, 888 458.98Q914.67 413.65, 960 440.32Q1013.05 421.37, 1032 474.42Q1082.24 404.66, 1152 454.9Q1174.95 405.85, 1224 428.8Q1306.13 390.93, 1344 473.05Q1371.28 428.33, 1416 455.61Q1445.06 412.67, 1488 441.72z" fill="#356cb1"></path><path d="M1536 560L0 560 L0 557.81Q20.22 506.02, 72 526.24Q122.29 456.53, 192 506.83Q244.91 487.74, 264 540.64Q340.02 496.66, 384 572.69Q414.53 483.23, 504 513.76Q546.25 484.01, 576 526.27Q657.8 488.07, 696 569.86Q721.27 523.13, 768 548.41Q795.2 503.61, 840 530.8Q858.58 477.38, 912 495.96Q957.53 469.49, 984 515.01Q1025.09 484.1, 1056 525.19Q1113.13 510.32, 1128 567.45Q1132.63 500.08, 1200 504.71Q1230.82 463.53, 1272 494.35Q1324.23 474.58, 1344 526.81Q1400.6 511.4, 1416 568Q1481.85 513.85, 1536 579.7z" fill="white"></path></g><defs><mask id="SvgjsMask1008"><rect width="1440" height="560" fill="#ffffff"></rect></mask></defs></svg>