<svg xmlns="http://www.w3.org/2000/svg" version="1.1" xmlns:xlink="http://www.w3.org/1999/xlink" xmlns:svgjs="http://svgjs.com/svgjs" width="1440" height="560" preserveAspectRatio="none" viewBox="0 0 1440 560"><g mask="url(&quot;#SvgjsMask1018&quot;)" fill="none"><path d="M1663.76 71.39C1520.73 80.7 1417.43 352.06 1163.44 351.39 909.45 350.72 829.18-71.92 663.12-104.3" stroke="rgba(51,121,194,0.58)" stroke-width="2"></path><path d="M1640.02 431.93C1524.74 425.71 1474.61 242.81 1230.2 219.13 985.8 195.45 950.24-89.89 820.39-109.3" stroke="rgba(51,121,194,0.58)" stroke-width="2"></path><path d="M1694.52 472.46C1509.38 470.69 1275.14 288.24 980.34 276.46 685.54 264.68 738.16-3.76 623.25-22.62" stroke="rgba(51,121,194,0.58)" stroke-width="2"></path><path d="M1520.2 378.63C1369.37 379.12 1173.58 501.4 927.35 490.63 681.13 479.86 761.63 33.52 630.93-46.91" stroke="rgba(51,121,194,0.58)" stroke-width="2"></path><path d="M1514.89 64.26C1402.62 66.51 1306.18 215.9 1091.95 215.46 877.72 215.02 796.29-59.62 669.01-72.9" stroke="rgba(51,121,194,0.58)" stroke-width="2"></path></g><defs><mask id="SvgjsMask1018"><rect width="1440" height="560" fill="#ffffff"></rect></mask></defs></svg>