<svg xmlns="http://www.w3.org/2000/svg" version="1.1" xmlns:xlink="http://www.w3.org/1999/xlink" xmlns:svgjs="http://svgjs.com/svgjs" width="1440" height="560" preserveAspectRatio="none" viewBox="0 0 1440 560"><g mask="url(&quot;#SvgjsMask1730&quot;)" fill="none"><rect width="1440" height="560" x="0" y="0" fill="url(#SvgjsLinearGradient1731)"></rect><path d="M-8.78 200.05C110.31 198.84 203.47 64.81 449.87 71.25 696.27 77.69 746.31 518.4 908.52 561.43" stroke="rgba(51,121,194,0.58)" stroke-width="2"></path><path d="M-209.64 383.75C-102.76 383.99 1.23 453.75 212.1 453.75 422.98 453.75 421.23 383.53 633.85 383.75 846.47 383.97 941.12 558.97 1055.59 562.62" stroke="rgba(51,121,194,0.58)" stroke-width="2"></path><path d="M-73.37 70.1C66.29 73.57 152.69 254.48 447.82 271.7 742.94 288.92 811.96 611.97 969 628.52" stroke="rgba(51,121,194,0.58)" stroke-width="2"></path><path d="M-142.48 332.73C-34.2 332.96 71.24 402.73 284.96 402.73 498.68 402.73 494.78 331.99 712.4 332.73 930.02 333.47 1018.24 559.27 1139.84 566.76" stroke="rgba(51,121,194,0.58)" stroke-width="2"></path><path d="M-178.67 254.68C-2.68 254.13 241.59 122.15 513.42 125.88 785.26 129.61 726.2 528.18 859.47 578.39" stroke="rgba(51,121,194,0.58)" stroke-width="2"></path></g><defs><mask id="SvgjsMask1730"><rect width="1440" height="560" fill="#ffffff"></rect></mask><linearGradient x1="50%" y1="0%" x2="50%" y2="100%" gradientUnits="userSpaceOnUse" id="SvgjsLinearGradient1731"><stop stop-color="rgba(255, 255, 255, 0)" offset="0"></stop><stop stop-color="rgba(0, 0, 0, 0)" offset="1"></stop></linearGradient></defs></svg>