<svg xmlns="http://www.w3.org/2000/svg" version="1.1" xmlns:xlink="http://www.w3.org/1999/xlink" xmlns:svgjs="http://svgjs.com/svgjs" width="1440" height="768" preserveAspectRatio="none" viewBox="0 0 1440 768"><g mask="url(&quot;#SvgjsMask3040&quot;)" fill="none"><use xlink:href="#SvgjsG3060" transform="translate(0, 0)" fill="rgba(255, 192, 70, 0.2)"></use><use xlink:href="#SvgjsG3060" transform="translate(0, 180)" fill="rgba(255, 192, 70, 0.2)"></use><use xlink:href="#SvgjsG3060" transform="translate(0, 360)" fill="rgba(65, 104, 187, 0.2)"></use><use xlink:href="#SvgjsG3060" transform="translate(0, 540)" fill="rgba(65, 104, 187, 0.2)"></use><use xlink:href="#SvgjsG3060" transform="translate(0, 720)" fill="rgba(255, 192, 70, 0.2)"></use><use xlink:href="#SvgjsG3060" transform="translate(180, 0)" fill="rgba(255, 192, 70, 0.2)"></use><use xlink:href="#SvgjsG3060" transform="translate(180, 180)" fill="rgba(65, 104, 187, 0.2)"></use><use xlink:href="#SvgjsG3060" transform="translate(180, 360)" fill="rgba(255, 192, 70, 0.2)"></use><use xlink:href="#SvgjsG3060" transform="translate(180, 540)" fill="rgba(255, 192, 70, 0.2)"></use><use xlink:href="#SvgjsG3060" transform="translate(180, 720)" fill="rgba(65, 104, 187, 0.2)"></use><use xlink:href="#SvgjsG3060" transform="translate(360, 0)" fill="rgba(65, 104, 187, 0.2)"></use><use xlink:href="#SvgjsG3060" transform="translate(360, 180)" fill="rgba(65, 104, 187, 0.2)"></use><use xlink:href="#SvgjsG3060" transform="translate(360, 360)" fill="rgba(65, 104, 187, 0.2)"></use><use xlink:href="#SvgjsG3060" transform="translate(360, 540)" fill="rgba(65, 104, 187, 0.2)"></use><use xlink:href="#SvgjsG3060" transform="translate(360, 720)" fill="rgba(255, 192, 70, 0.2)"></use><use xlink:href="#SvgjsG3060" transform="translate(540, 0)" fill="rgba(255, 192, 70, 0.2)"></use><use xlink:href="#SvgjsG3060" transform="translate(540, 180)" fill="rgba(255, 192, 70, 0.2)"></use><use xlink:href="#SvgjsG3060" transform="translate(540, 360)" fill="rgba(65, 104, 187, 0.2)"></use><use xlink:href="#SvgjsG3060" transform="translate(540, 540)" fill="rgba(65, 104, 187, 0.2)"></use><use xlink:href="#SvgjsG3060" transform="translate(540, 720)" fill="rgba(65, 104, 187, 0.2)"></use><use xlink:href="#SvgjsG3060" transform="translate(720, 0)" fill="rgba(65, 104, 187, 0.2)"></use><use xlink:href="#SvgjsG3060" transform="translate(720, 180)" fill="rgba(255, 192, 70, 0.2)"></use><use xlink:href="#SvgjsG3060" transform="translate(720, 360)" fill="rgba(65, 104, 187, 0.2)"></use><use xlink:href="#SvgjsG3060" transform="translate(720, 540)" fill="rgba(65, 104, 187, 0.2)"></use><use xlink:href="#SvgjsG3060" transform="translate(720, 720)" fill="rgba(65, 104, 187, 0.2)"></use><use xlink:href="#SvgjsG3060" transform="translate(900, 0)" fill="rgba(65, 104, 187, 0.2)"></use><use xlink:href="#SvgjsG3060" transform="translate(900, 180)" fill="rgba(65, 104, 187, 0.2)"></use><use xlink:href="#SvgjsG3060" transform="translate(900, 360)" fill="rgba(65, 104, 187, 0.2)"></use><use xlink:href="#SvgjsG3060" transform="translate(900, 540)" fill="rgba(65, 104, 187, 0.2)"></use><use xlink:href="#SvgjsG3060" transform="translate(900, 720)" fill="rgba(65, 104, 187, 0.2)"></use><use xlink:href="#SvgjsG3060" transform="translate(1080, 0)" fill="rgba(255, 192, 70, 0.2)"></use><use xlink:href="#SvgjsG3060" transform="translate(1080, 180)" fill="rgba(65, 104, 187, 0.2)"></use><use xlink:href="#SvgjsG3060" transform="translate(1080, 360)" fill="rgba(65, 104, 187, 0.2)"></use><use xlink:href="#SvgjsG3060" transform="translate(1080, 540)" fill="rgba(255, 192, 70, 0.2)"></use><use xlink:href="#SvgjsG3060" transform="translate(1080, 720)" fill="rgba(65, 104, 187, 0.2)"></use><use xlink:href="#SvgjsG3060" transform="translate(1260, 0)" fill="rgba(65, 104, 187, 0.2)"></use><use xlink:href="#SvgjsG3060" transform="translate(1260, 180)" fill="rgba(65, 104, 187, 0.2)"></use><use xlink:href="#SvgjsG3060" transform="translate(1260, 360)" fill="rgba(255, 192, 70, 0.2)"></use><use xlink:href="#SvgjsG3060" transform="translate(1260, 540)" fill="rgba(65, 104, 187, 0.2)"></use><use xlink:href="#SvgjsG3060" transform="translate(1260, 720)" fill="rgba(65, 104, 187, 0.2)"></use></g><defs><mask id="SvgjsMask3040"><rect width="1440" height="768" fill="#ffffff"></rect></mask><g id="SvgjsG3052"><path d="M6.498 9.304L12.139 3.663l1.565 1.566-5.641 5.641z"></path><path d="M6.8 0.457h2.541v8.028H6.8z"></path><path d="M8.072 10.876L2.429 5.238l1.563-1.566L9.636 9.313zM1.2 13.277h13.733v2.266H1.2z"></path><path d="M0.733 9.143h2.267v6.4h-2.267z m12.267 0h2.267v6.4h-2.267z"></path></g><g id="SvgjsG3048"><path d="M15.233 9.431c0.295 0 0.569-0.239 0.61-0.532 0 0 0.056-0.411 0.056-0.899s-0.056-0.899-0.056-0.899c-0.041-0.292-0.315-0.531-0.61-0.53h-1.524c-0.295 0-0.602-0.188-0.681-0.418s-0.188-0.967 0.021-1.176l1.078-1.077c0.209-0.209 0.225-0.565 0.036-0.792l-1.268-1.268c-0.227-0.189-0.583-0.173-0.792 0.036l-1.078 1.077c-0.208 0.209-0.556 0.293-0.772 0.187s-0.822-0.552-0.821-0.847V0.767c0-0.295-0.239-0.569-0.531-0.61 0 0-0.411-0.057-0.9-0.056s-0.899 0.057-0.899 0.056c-0.293 0.04-0.532 0.315-0.532 0.61v1.524c0 0.295-0.188 0.601-0.418 0.681s-0.967 0.188-1.176-0.021l-1.078-1.078C3.689 1.665 3.333 1.649 3.107 1.837l-1.268 1.268c-0.189 0.227-0.173 0.583 0.036 0.792l1.077 1.078c0.209 0.209 0.293 0.556 0.187 0.772s-0.552 0.822-0.847 0.822H0.767c-0.295 0-0.569 0.239-0.61 0.531 0 0-0.057 0.411-0.056 0.899s0.057 0.899 0.056 0.9c0.04 0.293 0.315 0.532 0.61 0.532h1.525c0.295 0 0.601 0.188 0.681 0.417 0.079 0.23 0.188 0.967-0.02 1.176l-1.078 1.077C1.667 12.311 1.651 12.667 1.84 12.893l1.267 1.268c0.227 0.189 0.583 0.173 0.792-0.036l1.077-1.077c0.209-0.208 0.556-0.292 0.772-0.187s0.821 0.553 0.822 0.848v1.524c0 0.295 0.239 0.569 0.532 0.61 0 0 0.411 0.057 0.899 0.057s0.899-0.056 0.899-0.057c0.293-0.04 0.531-0.315 0.532-0.609v-1.524c0-0.295 0.188-0.602 0.418-0.681 0.23-0.079 0.967-0.188 1.176 0.021l1.077 1.077c0.209 0.209 0.565 0.225 0.792 0.036l1.268-1.267c0.189-0.227 0.173-0.583-0.036-0.792l-1.078-1.077c-0.209-0.209-0.293-0.557-0.186-0.773 0.106-0.216 0.552-0.822 0.847-0.822h1.525zM8 10.892c-1.597 0-2.891-1.294-2.891-2.892 0-1.596 1.295-2.891 2.891-2.891S10.892 6.404 10.892 8 9.597 10.892 8 10.892z"></path></g><g id="SvgjsG3049"><path d="M16.012 2.226H8.034V0.013L16.012 0.012z"></path><path d="M7.732 6.485l5.676-5.676 1.797 1.796-5.676 5.678z"></path><path d="M15.997 0.014l0.003 7.978-2.212 0.001-0.003-7.979zM0.4 3.133h2.267v11.6H0.4z m11.132 7.008h2.267V15.067h-2.267z"></path><path d="M0.4 2.226h5.421v2.266H0.4zM0.4 12.8h13.399v2.267H0.4z"></path></g><g id="SvgjsG3044"><path d="M15.065 12.151H0.02c0 1.333 1.015 1.95 1.83 1.95h11.386c0.975 0 1.83-0.767 1.829-1.951zM12.853 2.166H1.869v7.208c0 0.976 0.843 1.75 1.755 1.75h7.121c1.031 0 1.731-0.863 1.731-1.749V8.773c2.031 0 3.505-1.527 3.505-3.303 0-1.815-1.445-3.303-3.126-3.303z m1.832 3.305c0 1.036-0.763 2.025-2.21 1.931V3.519l0.378 0 0 0.001c1.391 0 1.837 1.318 1.832 1.952v-0.001z"></path></g><g id="SvgjsG3051"><path d="M14.885 8.725h-1.479v5.687c0.01 1.007 1.48 1.007 1.479 0V8.725z m-1.69 0h-1.479v5.687c0.006 1 1.476 1 1.479 0V8.725z m-3.593 0h-1.479v5.687c0.009 1.007 1.48 1.007 1.479 0V8.725z m-1.691 0h-1.479v5.687c0.006 1 1.477 1 1.479 0V8.725z m-3.592 0h-1.479v5.687c0.009 1.007 1.48 1.007 1.479 0V8.725z m-1.69 0h-1.479v5.687c0.005 1 1.477 1 1.479 0V8.725z"></path><path d="M15.828 8.303a0.57 0.57 0 0 1-0.578 0.577s-3.866 0.005-3.88 0a0.576 0.576 0 0 1-0.576-0.577V4.096a0.793 0.793 0 0 1 0.806-0.807c-0.005-0.005 3.419 0 3.418 0a0.792 0.792 0 0 1 0.808 0.807v4.206h0.001zM13.329 2.944c0.606 0 1.099-0.494 1.095-1.096A1.1 1.1 0 0 0 13.329 0.734a1.119 1.119 0 0 0-1.114 1.114 1.113 1.113 0 0 0 1.114 1.096z m-2.785 5.359a0.567 0.567 0 0 1-0.576 0.577s-3.866 0.005-3.881 0a0.576 0.576 0 0 1-0.576-0.577V4.096a0.794 0.794 0 0 1 0.807-0.807c-0.005-0.005 3.419 0 3.419 0a0.791 0.791 0 0 1 0.807 0.807v4.206zM8.047 2.944c0.605 0 1.099-0.494 1.094-1.096A1.1 1.1 0 0 0 8.047 0.734a1.12 1.12 0 0 0-1.115 1.114 1.114 1.114 0 0 0 1.114 1.096z m-2.787 5.359a0.568 0.568 0 0 1-0.576 0.577s-3.866 0.005-3.88 0a0.576 0.576 0 0 1-0.576-0.577V4.096a0.793 0.793 0 0 1 0.807-0.808c-0.005-0.005 3.42 0 3.419 0a0.791 0.791 0 0 1 0.807 0.807v4.207zM2.763 2.944c0.606 0 1.1-0.494 1.096-1.096A1.1 1.1 0 0 0 2.763 0.734a1.118 1.118 0 0 0-1.113 1.114A1.112 1.112 0 0 0 2.763 2.944z"></path></g><g id="SvgjsG3047"><path d="M8.43 3.58a1.188 1.188 0 0 0 0-2.372 1.186 1.186 0 0 0 0 2.372"></path><path d="M9.314 3.844h-1.73L4.634 0.894A0.6 0.6 0 0 0 3.78 0.874a0.6 0.6 0 0 0-0.024 0.856l3.08 3.086v10.228a0.664 0.664 0 0 0 1.334 0V9.496h0.54v5.548c0 0.37 0.304 0.668 0.67 0.668 0.368 0 0.664-0.3 0.664-0.668L10.04 4.816 13.12 1.73a0.6 0.6 0 0 0-0.02-0.854 0.6 0.6 0 0 0-0.856 0.02L9.314 3.84z"></path></g><g id="SvgjsG3050"><path d="M15.769 13.134v-0.004s-3.022-3.019-3.024-3.02a0.605 0.605 0 0 0-0.858 0.002L10.496 11.509c-0.541 0.541-1.238 0.061-2.577-1.031-0.886-0.722-1.905-1.693-2.788-2.788-0.62-0.768-1.168-1.575-0.602-2.141 0.001-0.001 1.397-1.393 1.398-1.395l0.001-0.003c0.251-0.25 0.226-0.634-0.003-0.862v-0.004L2.813 0.177c-0.24-0.239-0.623-0.234-0.858 0.002L0.553 1.58C-0.024 2.303-1.307 5.747 4.194 11.385c5.795 5.94 9.534 4.669 10.177 3.999 0 0 1.4-1.383 1.4-1.384l0.001-0.003c0.251-0.251 0.225-0.635-0.002-0.864z"></path></g><g id="SvgjsG3056"><path d="M0.005 7.414L16 0 8.581 15.995l-0.627-7.948z"></path></g><g id="SvgjsG3041"><path d="M11.221 11.657c-2.056 2.056-5.389 2.055-7.444 0-2.056-2.056-2.056-5.389 0-7.444 0.976-0.977 2.617-2.176 5.214-2.176 4.749 0 6.224-1.252 6.224-1.252 0 5.707-1.938 8.816-3.994 10.872z"></path><path d="M3.223 11.626L2.552 10.224l6.437-4.363z"></path><path d="M8.989 5.861l1.15 1.15-8.203 8.203-1.151-1.15z"></path></g><g id="SvgjsG3053"><path d="M6.22 14.34L0.096 8.212l2.288-2.288 6.124 6.124z"></path><path d="M16.126 4.416L7.47 13.072l-2.44-2.44L13.686 1.976z"></path></g><g id="SvgjsG3057"><path d="M5.534 5.272L8.008 0l2.474 5.272 5.534 0.845-4.004 4.103 0.945 5.795L8.008 13.279 3.06 16.015l0.945-5.795L0.001 6.117z"></path></g><g id="SvgjsG3059"><path d="M0.672 6.194h14.656v3.614H0.672z"></path><path d="M6.194 0.672h3.614v14.656H6.194z"></path></g><g id="SvgjsG3046"><path d="M0.436 7.836c0 4.161 3.373 7.533 7.534 7.534 4.16 0 7.533-3.373 7.533-7.534 0-2.169-0.918-4.121-2.384-5.496L11.204 4.385c0.922 0.864 1.499 2.092 1.499 3.452 0 2.61-2.123 4.733-4.733 4.733-2.61 0-4.733-2.123-4.733-4.733"></path><path d="M12.703 7.836c0 2.61-2.123 4.733-4.733 4.734-2.61 0-4.733-2.123-4.734-4.734 0-1.36 0.578-2.587 1.5-3.452l-1.916-2.044C1.354 3.715 0.436 5.668 0.436 7.836c0 4.161 3.373 7.533 7.534 7.533 4.161 0 7.533-3.373 7.533-7.533"></path><path d="M6.638 0H9.301v8.21H6.638z"></path></g><g id="SvgjsG3042"><path d="M8.067-0.016c-3.304 0-5.982 2.678-5.982 5.982 0 5.588 5.982 10.054 5.982 10.054s5.982-4.466 5.982-10.054c0-3.304-2.678-5.982-5.982-5.982z m0 8.625c-1.46 0-2.643-1.183-2.643-2.643S6.607 3.323 8.067 3.323s2.643 1.183 2.643 2.643S9.527 8.609 8.067 8.609z"></path></g><g id="SvgjsG3045"><path d="M8 12.733c-2.61 0-4.733-2.123-4.733-4.733 0-2.61 2.123-4.733 4.733-4.733 1.816 0 3.396 1.029 4.189 2.533h3.017c-0.941-3.087-3.81-5.333-7.205-5.333-4.161 0-7.533 3.373-7.534 7.533 0 4.16 3.373 7.533 7.534 7.533 2.169 0 4.121-0.918 5.496-2.384l-2.044-1.915C10.59 12.156 9.362 12.733 8.002 12.733z"></path><path d="M16 0v6.045M12.189 5.8h3.016"></path><path d="M16 2.911l-0.001 6.268-6.022-1.737z"></path></g><g id="SvgjsG3054"><path d="M0 0h4.958v4.958H0V0z m5.521 0h4.958v4.958H5.521V0z m5.521 0h4.958v4.958h-4.958V0zM0 5.521h4.958v4.958H0V5.521z m5.521 0h4.958v4.958H5.521V5.521z m5.521 0h4.958v4.958h-4.958V5.521zM0 11.042h4.958v4.958H0v-4.958z m5.521 0h4.958v4.958H5.521v-4.958z m5.521 0h4.958v4.958h-4.958v-4.958z" fill-rule="evenodd"></path></g><g id="SvgjsG3055"><path d="M9.769 1.839L4.128 7.479l-1.566-1.565 5.641-5.641z"></path><path d="M6.926 2.658h2.54v8.028H6.926z"></path><path d="M8.194 0.267l5.643 5.638-1.563 1.566-5.644-5.641zM1.333 13.277h13.734v2.266H1.333z"></path><path d="M0.867 9.143h2.266v6.4h-2.266z m12.266 0h2.267v6.4h-2.267z"></path></g><g id="SvgjsG3058"><path d="M9.531 2.655a1.328 1.328 0 0 0 1.327-1.328C10.859 0.593 10.264-0.002 9.531 0a1.324 1.324 0 0 0-1.328 1.327c-0.002 0.733 0.594 1.328 1.328 1.328zM7.821 5.099l0.008 10.145c0.002 1.012 1.495 1.003 1.491-0.024l0.008-5.903h0.289v5.896c-0.003 1.032 1.507 1.058 1.507 0.031V5.052h0.266v3.64c-0.004 0.875 1.181 0.875 1.179 0.015V4.733c0.003-1.073-0.794-1.703-1.632-1.703h-2.367c-0.56 0-0.967 0.221-1.312 0.711l-1.195 1.741H3.994c-0.837 0-0.79 1.182-0.015 1.18H6.368c0.186 0.003 0.414-0.067 0.547-0.266l0.905-1.296z" fill-rule="evenodd"></path></g><g id="SvgjsG3043"><path d="M2.524 8.637H0.014V7.308h2.51v1.329zM3.656 4.576L1.884 2.804l0.935-0.935 1.772 1.772-0.935 0.935z m0 6.817l0.935 0.935-1.772 1.773-0.934-0.936 1.771-1.772z m4.997-8.884h-1.33V-0.002h1.33v2.511z m-1.33 10.952h1.33v2.51h-1.33v-2.509zM12.344 4.576l-0.96-0.935 1.796-1.772 0.935 0.935-1.772 1.772z m0 6.792l1.771 1.797-0.935 0.936-1.771-1.774 0.936-0.96z m3.643-4.06v1.329h-2.51V7.308h2.509z"></path><path d="M3.702 7.984a4.184 4.184 0 1 0 8.368 0 4.184 4.184 0 1 0-8.368 0"></path></g><g id="SvgjsG3060"><use xlink:href="#SvgjsG3041" transform="translate(0, 0) scale(0.9)" fill="rgba(65, 104, 187, 0.2)"></use><use xlink:href="#SvgjsG3042" transform="translate(0, 18) scale(0.9)" fill="rgba(65, 104, 187, 0.2)"></use><use xlink:href="#SvgjsG3043" transform="translate(0, 36) scale(0.9)" fill="rgba(65, 104, 187, 0.2)"></use><use xlink:href="#SvgjsG3044" transform="translate(0, 54) scale(0.9)" fill="rgba(65, 104, 187, 0.2)"></use><use xlink:href="#SvgjsG3045" transform="translate(0, 72) scale(0.9)" fill="rgba(65, 104, 187, 0.2)"></use><use xlink:href="#SvgjsG3046" transform="translate(0, 90) scale(0.9)" fill="rgba(255, 192, 70, 0.2)"></use><use xlink:href="#SvgjsG3042" transform="translate(0, 108) scale(0.9)" fill="rgba(65, 104, 187, 0.2)"></use><use xlink:href="#SvgjsG3041" transform="translate(0, 126) scale(0.9)" fill="rgba(255, 192, 70, 0.2)"></use><use xlink:href="#SvgjsG3046" transform="translate(0, 144) scale(0.9)" fill="rgba(65, 104, 187, 0.2)"></use><use xlink:href="#SvgjsG3047" transform="translate(0, 162) scale(0.9)" fill="rgba(255, 192, 70, 0.2)"></use><use xlink:href="#SvgjsG3048" transform="translate(18, 0) scale(0.9)" fill="rgba(255, 192, 70, 0.2)"></use><use xlink:href="#SvgjsG3049" transform="translate(18, 18) scale(0.9)" fill="rgba(255, 192, 70, 0.2)"></use><use xlink:href="#SvgjsG3050" transform="translate(18, 36) scale(0.9)" fill="rgba(65, 104, 187, 0.2)"></use><use xlink:href="#SvgjsG3051" transform="translate(18, 54) scale(0.9)" fill="rgba(255, 192, 70, 0.2)"></use><use xlink:href="#SvgjsG3049" transform="translate(18, 72) scale(0.9)" fill="rgba(65, 104, 187, 0.2)"></use><use xlink:href="#SvgjsG3046" transform="translate(18, 90) scale(0.9)" fill="rgba(255, 192, 70, 0.2)"></use><use xlink:href="#SvgjsG3052" transform="translate(18, 108) scale(0.9)" fill="rgba(255, 192, 70, 0.2)"></use><use xlink:href="#SvgjsG3048" transform="translate(18, 126) scale(0.9)" fill="rgba(255, 192, 70, 0.2)"></use><use xlink:href="#SvgjsG3044" transform="translate(18, 144) scale(0.9)" fill="rgba(255, 192, 70, 0.2)"></use><use xlink:href="#SvgjsG3053" transform="translate(18, 162) scale(0.9)" fill="rgba(255, 192, 70, 0.2)"></use><use xlink:href="#SvgjsG3054" transform="translate(36, 0) scale(0.9)" fill="rgba(255, 192, 70, 0.2)"></use><use xlink:href="#SvgjsG3046" transform="translate(36, 18) scale(0.9)" fill="rgba(255, 192, 70, 0.2)"></use><use xlink:href="#SvgjsG3042" transform="translate(36, 36) scale(0.9)" fill="rgba(255, 192, 70, 0.2)"></use><use xlink:href="#SvgjsG3041" transform="translate(36, 54) scale(0.9)" fill="rgba(255, 192, 70, 0.2)"></use><use xlink:href="#SvgjsG3053" transform="translate(36, 72) scale(0.9)" fill="rgba(255, 192, 70, 0.2)"></use><use xlink:href="#SvgjsG3055" transform="translate(36, 90) scale(0.9)" fill="rgba(255, 192, 70, 0.2)"></use><use xlink:href="#SvgjsG3050" transform="translate(36, 108) scale(0.9)" fill="rgba(65, 104, 187, 0.2)"></use><use xlink:href="#SvgjsG3050" transform="translate(36, 126) scale(0.9)" fill="rgba(65, 104, 187, 0.2)"></use><use xlink:href="#SvgjsG3056" transform="translate(36, 144) scale(0.9)" fill="rgba(255, 192, 70, 0.2)"></use><use xlink:href="#SvgjsG3048" transform="translate(36, 162) scale(0.9)" fill="rgba(65, 104, 187, 0.2)"></use><use xlink:href="#SvgjsG3047" transform="translate(54, 0) scale(0.9)" fill="rgba(255, 192, 70, 0.2)"></use><use xlink:href="#SvgjsG3051" transform="translate(54, 18) scale(0.9)" fill="rgba(65, 104, 187, 0.2)"></use><use xlink:href="#SvgjsG3054" transform="translate(54, 36) scale(0.9)" fill="rgba(65, 104, 187, 0.2)"></use><use xlink:href="#SvgjsG3043" transform="translate(54, 54) scale(0.9)" fill="rgba(65, 104, 187, 0.2)"></use><use xlink:href="#SvgjsG3043" transform="translate(54, 72) scale(0.9)" fill="rgba(65, 104, 187, 0.2)"></use><use xlink:href="#SvgjsG3054" transform="translate(54, 90) scale(0.9)" fill="rgba(65, 104, 187, 0.2)"></use><use xlink:href="#SvgjsG3049" transform="translate(54, 108) scale(0.9)" fill="rgba(65, 104, 187, 0.2)"></use><use xlink:href="#SvgjsG3057" transform="translate(54, 126) scale(0.9)" fill="rgba(65, 104, 187, 0.2)"></use><use xlink:href="#SvgjsG3058" transform="translate(54, 144) scale(0.9)" fill="rgba(255, 192, 70, 0.2)"></use><use xlink:href="#SvgjsG3056" transform="translate(54, 162) scale(0.9)" fill="rgba(255, 192, 70, 0.2)"></use><use xlink:href="#SvgjsG3049" transform="translate(72, 0) scale(0.9)" fill="rgba(65, 104, 187, 0.2)"></use><use xlink:href="#SvgjsG3057" transform="translate(72, 18) scale(0.9)" fill="rgba(255, 192, 70, 0.2)"></use><use xlink:href="#SvgjsG3058" transform="translate(72, 36) scale(0.9)" fill="rgba(255, 192, 70, 0.2)"></use><use xlink:href="#SvgjsG3055" transform="translate(72, 54) scale(0.9)" fill="rgba(65, 104, 187, 0.2)"></use><use xlink:href="#SvgjsG3050" transform="translate(72, 72) scale(0.9)" fill="rgba(255, 192, 70, 0.2)"></use><use xlink:href="#SvgjsG3052" transform="translate(72, 90) scale(0.9)" fill="rgba(65, 104, 187, 0.2)"></use><use xlink:href="#SvgjsG3043" transform="translate(72, 108) scale(0.9)" fill="rgba(65, 104, 187, 0.2)"></use><use xlink:href="#SvgjsG3051" transform="translate(72, 126) scale(0.9)" fill="rgba(65, 104, 187, 0.2)"></use><use xlink:href="#SvgjsG3054" transform="translate(72, 144) scale(0.9)" fill="rgba(255, 192, 70, 0.2)"></use><use xlink:href="#SvgjsG3048" transform="translate(72, 162) scale(0.9)" fill="rgba(255, 192, 70, 0.2)"></use><use xlink:href="#SvgjsG3059" transform="translate(90, 0) scale(0.9)" fill="rgba(255, 192, 70, 0.2)"></use><use xlink:href="#SvgjsG3048" transform="translate(90, 18) scale(0.9)" fill="rgba(65, 104, 187, 0.2)"></use><use xlink:href="#SvgjsG3043" transform="translate(90, 36) scale(0.9)" fill="rgba(255, 192, 70, 0.2)"></use><use xlink:href="#SvgjsG3044" transform="translate(90, 54) scale(0.9)" fill="rgba(255, 192, 70, 0.2)"></use><use xlink:href="#SvgjsG3043" transform="translate(90, 72) scale(0.9)" fill="rgba(65, 104, 187, 0.2)"></use><use xlink:href="#SvgjsG3050" transform="translate(90, 90) scale(0.9)" fill="rgba(65, 104, 187, 0.2)"></use><use xlink:href="#SvgjsG3057" transform="translate(90, 108) scale(0.9)" fill="rgba(255, 192, 70, 0.2)"></use><use xlink:href="#SvgjsG3049" transform="translate(90, 126) scale(0.9)" fill="rgba(65, 104, 187, 0.2)"></use><use xlink:href="#SvgjsG3055" transform="translate(90, 144) scale(0.9)" fill="rgba(65, 104, 187, 0.2)"></use><use xlink:href="#SvgjsG3057" transform="translate(90, 162) scale(0.9)" fill="rgba(65, 104, 187, 0.2)"></use><use xlink:href="#SvgjsG3057" transform="translate(108, 0) scale(0.9)" fill="rgba(255, 192, 70, 0.2)"></use><use xlink:href="#SvgjsG3044" transform="translate(108, 18) scale(0.9)" fill="rgba(255, 192, 70, 0.2)"></use><use xlink:href="#SvgjsG3041" transform="translate(108, 36) scale(0.9)" fill="rgba(255, 192, 70, 0.2)"></use><use xlink:href="#SvgjsG3052" transform="translate(108, 54) scale(0.9)" fill="rgba(255, 192, 70, 0.2)"></use><use xlink:href="#SvgjsG3057" transform="translate(108, 72) scale(0.9)" fill="rgba(255, 192, 70, 0.2)"></use><use xlink:href="#SvgjsG3057" transform="translate(108, 90) scale(0.9)" fill="rgba(65, 104, 187, 0.2)"></use><use xlink:href="#SvgjsG3043" transform="translate(108, 108) scale(0.9)" fill="rgba(65, 104, 187, 0.2)"></use><use xlink:href="#SvgjsG3052" transform="translate(108, 126) scale(0.9)" fill="rgba(65, 104, 187, 0.2)"></use><use xlink:href="#SvgjsG3051" transform="translate(108, 144) scale(0.9)" fill="rgba(255, 192, 70, 0.2)"></use><use xlink:href="#SvgjsG3057" transform="translate(108, 162) scale(0.9)" fill="rgba(65, 104, 187, 0.2)"></use><use xlink:href="#SvgjsG3056" transform="translate(126, 0) scale(0.9)" fill="rgba(65, 104, 187, 0.2)"></use><use xlink:href="#SvgjsG3041" transform="translate(126, 18) scale(0.9)" fill="rgba(65, 104, 187, 0.2)"></use><use xlink:href="#SvgjsG3049" transform="translate(126, 36) scale(0.9)" fill="rgba(65, 104, 187, 0.2)"></use><use xlink:href="#SvgjsG3052" transform="translate(126, 54) scale(0.9)" fill="rgba(255, 192, 70, 0.2)"></use><use xlink:href="#SvgjsG3056" transform="translate(126, 72) scale(0.9)" fill="rgba(65, 104, 187, 0.2)"></use><use xlink:href="#SvgjsG3041" transform="translate(126, 90) scale(0.9)" fill="rgba(65, 104, 187, 0.2)"></use><use xlink:href="#SvgjsG3058" transform="translate(126, 108) scale(0.9)" fill="rgba(255, 192, 70, 0.2)"></use><use xlink:href="#SvgjsG3055" transform="translate(126, 126) scale(0.9)" fill="rgba(255, 192, 70, 0.2)"></use><use xlink:href="#SvgjsG3058" transform="translate(126, 144) scale(0.9)" fill="rgba(255, 192, 70, 0.2)"></use><use xlink:href="#SvgjsG3044" transform="translate(126, 162) scale(0.9)" fill="rgba(65, 104, 187, 0.2)"></use><use xlink:href="#SvgjsG3053" transform="translate(144, 0) scale(0.9)" fill="rgba(255, 192, 70, 0.2)"></use><use xlink:href="#SvgjsG3055" transform="translate(144, 18) scale(0.9)" fill="rgba(65, 104, 187, 0.2)"></use><use xlink:href="#SvgjsG3041" transform="translate(144, 36) scale(0.9)" fill="rgba(255, 192, 70, 0.2)"></use><use xlink:href="#SvgjsG3044" transform="translate(144, 54) scale(0.9)" fill="rgba(255, 192, 70, 0.2)"></use><use xlink:href="#SvgjsG3056" transform="translate(144, 72) scale(0.9)" fill="rgba(255, 192, 70, 0.2)"></use><use xlink:href="#SvgjsG3042" transform="translate(144, 90) scale(0.9)" fill="rgba(255, 192, 70, 0.2)"></use><use xlink:href="#SvgjsG3046" transform="translate(144, 108) scale(0.9)" fill="rgba(65, 104, 187, 0.2)"></use><use xlink:href="#SvgjsG3048" transform="translate(144, 126) scale(0.9)" fill="rgba(255, 192, 70, 0.2)"></use><use xlink:href="#SvgjsG3056" transform="translate(144, 144) scale(0.9)" fill="rgba(255, 192, 70, 0.2)"></use><use xlink:href="#SvgjsG3053" transform="translate(144, 162) scale(0.9)" fill="rgba(255, 192, 70, 0.2)"></use><use xlink:href="#SvgjsG3057" transform="translate(162, 0) scale(0.9)" fill="rgba(255, 192, 70, 0.2)"></use><use xlink:href="#SvgjsG3054" transform="translate(162, 18) scale(0.9)" fill="rgba(65, 104, 187, 0.2)"></use><use xlink:href="#SvgjsG3056" transform="translate(162, 36) scale(0.9)" fill="rgba(65, 104, 187, 0.2)"></use><use xlink:href="#SvgjsG3048" transform="translate(162, 54) scale(0.9)" fill="rgba(65, 104, 187, 0.2)"></use><use xlink:href="#SvgjsG3047" transform="translate(162, 72) scale(0.9)" fill="rgba(65, 104, 187, 0.2)"></use><use xlink:href="#SvgjsG3053" transform="translate(162, 90) scale(0.9)" fill="rgba(65, 104, 187, 0.2)"></use><use xlink:href="#SvgjsG3047" transform="translate(162, 108) scale(0.9)" fill="rgba(255, 192, 70, 0.2)"></use><use xlink:href="#SvgjsG3041" transform="translate(162, 126) scale(0.9)" fill="rgba(65, 104, 187, 0.2)"></use><use xlink:href="#SvgjsG3054" transform="translate(162, 144) scale(0.9)" fill="rgba(255, 192, 70, 0.2)"></use><use xlink:href="#SvgjsG3059" transform="translate(162, 162) scale(0.9)" fill="rgba(255, 192, 70, 0.2)"></use></g></defs></svg>