<svg xmlns="http://www.w3.org/2000/svg" version="1.1" xmlns:xlink="http://www.w3.org/1999/xlink" xmlns:svgjs="http://svgjs.com/svgjs" width="1440" height="560" preserveAspectRatio="none" viewBox="0 0 1440 560"><g mask="url(&quot;#SvgjsMask1065&quot;)" fill="none"><path d="M-99.52 511.97L-99.52 511.97" stroke="rgba(255, 192, 70, 1)" stroke-width="1.5"></path><path d="M-99.52 511.97L40.8 561.3" stroke="rgba(255, 192, 70, 1)" stroke-width="1.5"></path><path d="M-99.52 511.97L-104.77 665.33" stroke="rgba(255, 192, 70, 1)" stroke-width="1.5"></path><path d="M-99.52 511.97L61.28 699.41" stroke="rgba(255, 192, 70, 1)" stroke-width="1.5"></path><path d="M-99.52 511.97L104.15 351.5" stroke="rgba(255, 192, 70, 1)" stroke-width="1.5"></path><path d="M-99.52 511.97L189.23 521.51" stroke="rgba(255, 192, 70, 1)" stroke-width="1.5"></path><path d="M-104.77 665.33L-104.77 665.33" stroke="rgba(255, 192, 70, 1)" stroke-width="1.5"></path><path d="M-104.77 665.33L61.28 699.41" stroke="rgba(255, 192, 70, 1)" stroke-width="1.5"></path><path d="M104.15 351.5L104.15 351.5" stroke="rgba(255, 192, 70, 1)" stroke-width="1.5"></path><path d="M104.15 351.5L253.83 408.33" stroke="rgba(255, 192, 70, 1)" stroke-width="1.5"></path><path d="M104.15 351.5L189.23 521.51" stroke="rgba(255, 192, 70, 1)" stroke-width="1.5"></path><path d="M104.15 351.5L40.8 561.3" stroke="rgba(255, 192, 70, 1)" stroke-width="1.5"></path><path d="M40.8 561.3L40.8 561.3" stroke="rgba(255, 192, 70, 1)" stroke-width="1.5"></path><path d="M40.8 561.3L61.28 699.41" stroke="rgba(255, 192, 70, 1)" stroke-width="1.5"></path><path d="M40.8 561.3L189.23 521.51" stroke="rgba(255, 192, 70, 1)" stroke-width="1.5"></path><path d="M61.28 699.41L61.28 699.41" stroke="rgba(255, 192, 70, 1)" stroke-width="1.5"></path><path d="M61.28 699.41L204.28 639.55" stroke="rgba(255, 192, 70, 1)" stroke-width="1.5"></path><path d="M253.83 408.33L253.83 408.33" stroke="rgba(255, 192, 70, 1)" stroke-width="1.5"></path><path d="M253.83 408.33L189.23 521.51" stroke="rgba(255, 192, 70, 1)" stroke-width="1.5"></path><path d="M253.83 408.33L360.11 511.55" stroke="rgba(255, 192, 70, 1)" stroke-width="1.5"></path><path d="M189.23 521.51L189.23 521.51" stroke="rgba(255, 192, 70, 1)" stroke-width="1.5"></path><path d="M189.23 521.51L204.28 639.55" stroke="rgba(255, 192, 70, 1)" stroke-width="1.5"></path><path d="M189.23 521.51L360.11 511.55" stroke="rgba(255, 192, 70, 1)" stroke-width="1.5"></path><path d="M204.28 639.55L204.28 639.55" stroke="rgba(255, 192, 70, 1)" stroke-width="1.5"></path><path d="M410.78 349.39L410.78 349.39" stroke="rgba(255, 192, 70, 1)" stroke-width="1.5"></path><path d="M410.78 349.39L548.26 411.11" stroke="rgba(255, 192, 70, 1)" stroke-width="1.5"></path><path d="M410.78 349.39L253.83 408.33" stroke="rgba(255, 192, 70, 1)" stroke-width="1.5"></path><path d="M410.78 349.39L360.11 511.55" stroke="rgba(255, 192, 70, 1)" stroke-width="1.5"></path><path d="M410.78 349.39L561.98 494.43" stroke="rgba(255, 192, 70, 1)" stroke-width="1.5"></path><path d="M360.11 511.55L360.11 511.55" stroke="rgba(255, 192, 70, 1)" stroke-width="1.5"></path><path d="M360.11 511.55L401.5 663.58" stroke="rgba(255, 192, 70, 1)" stroke-width="1.5"></path><path d="M401.5 663.58L401.5 663.58" stroke="rgba(255, 192, 70, 1)" stroke-width="1.5"></path><path d="M401.5 663.58L562.02 648.63" stroke="rgba(255, 192, 70, 1)" stroke-width="1.5"></path><path d="M401.5 663.58L204.28 639.55" stroke="rgba(255, 192, 70, 1)" stroke-width="1.5"></path><path d="M401.5 663.58L561.98 494.43" stroke="rgba(255, 192, 70, 1)" stroke-width="1.5"></path><path d="M401.5 663.58L189.23 521.51" stroke="rgba(255, 192, 70, 1)" stroke-width="1.5"></path><path d="M548.26 411.11L548.26 411.11" stroke="rgba(255, 192, 70, 1)" stroke-width="1.5"></path><path d="M548.26 411.11L561.98 494.43" stroke="rgba(255, 192, 70, 1)" stroke-width="1.5"></path><path d="M548.26 411.11L676.93 361.13" stroke="rgba(255, 192, 70, 1)" stroke-width="1.5"></path><path d="M561.98 494.43L561.98 494.43" stroke="rgba(255, 192, 70, 1)" stroke-width="1.5"></path><path d="M561.98 494.43L670.32 535.86" stroke="rgba(255, 192, 70, 1)" stroke-width="1.5"></path><path d="M561.98 494.43L562.02 648.63" stroke="rgba(255, 192, 70, 1)" stroke-width="1.5"></path><path d="M561.98 494.43L676.93 361.13" stroke="rgba(255, 192, 70, 1)" stroke-width="1.5"></path><path d="M562.02 648.63L562.02 648.63" stroke="rgba(255, 192, 70, 1)" stroke-width="1.5"></path><path d="M562.02 648.63L679.71 657.34" stroke="rgba(255, 192, 70, 1)" stroke-width="1.5"></path><path d="M562.02 648.63L670.32 535.86" stroke="rgba(255, 192, 70, 1)" stroke-width="1.5"></path><path d="M562.02 648.63L791.29 673.22" stroke="rgba(255, 192, 70, 1)" stroke-width="1.5"></path><path d="M676.93 361.13L676.93 361.13" stroke="rgba(255, 192, 70, 1)" stroke-width="1.5"></path><path d="M676.93 361.13L804.38 375.93" stroke="rgba(255, 192, 70, 1)" stroke-width="1.5"></path><path d="M676.93 361.13L670.32 535.86" stroke="rgba(255, 192, 70, 1)" stroke-width="1.5"></path><path d="M676.93 361.13L410.78 349.39" stroke="rgba(255, 192, 70, 1)" stroke-width="1.5"></path><path d="M676.93 361.13L859.76 559.19" stroke="rgba(255, 192, 70, 1)" stroke-width="1.5"></path><path d="M670.32 535.86L670.32 535.86" stroke="rgba(255, 192, 70, 1)" stroke-width="1.5"></path><path d="M670.32 535.86L679.71 657.34" stroke="rgba(255, 192, 70, 1)" stroke-width="1.5"></path><path d="M679.71 657.34L679.71 657.34" stroke="rgba(255, 192, 70, 1)" stroke-width="1.5"></path><path d="M679.71 657.34L791.29 673.22" stroke="rgba(255, 192, 70, 1)" stroke-width="1.5"></path><path d="M851.55 64.52L851.55 64.52" stroke="rgba(255, 192, 70, 1)" stroke-width="1.5"></path><path d="M851.55 64.52L986.77 61.59" stroke="rgba(255, 192, 70, 1)" stroke-width="1.5"></path><path d="M851.55 64.52L993.53 -104.42" stroke="rgba(255, 192, 70, 1)" stroke-width="1.5"></path><path d="M851.55 64.52L1091.13 -40.84" stroke="rgba(255, 192, 70, 1)" stroke-width="1.5"></path><path d="M851.55 64.52L1132.93 109.88" stroke="rgba(255, 192, 70, 1)" stroke-width="1.5"></path><path d="M851.55 64.52L804.38 375.93" stroke="rgba(255, 192, 70, 1)" stroke-width="1.5"></path><path d="M804.38 375.93L804.38 375.93" stroke="rgba(255, 192, 70, 1)" stroke-width="1.5"></path><path d="M804.38 375.93L947.55 375" stroke="rgba(255, 192, 70, 1)" stroke-width="1.5"></path><path d="M804.38 375.93L859.76 559.19" stroke="rgba(255, 192, 70, 1)" stroke-width="1.5"></path><path d="M859.76 559.19L859.76 559.19" stroke="rgba(255, 192, 70, 1)" stroke-width="1.5"></path><path d="M859.76 559.19L791.29 673.22" stroke="rgba(255, 192, 70, 1)" stroke-width="1.5"></path><path d="M859.76 559.19L958.41 666.2" stroke="rgba(255, 192, 70, 1)" stroke-width="1.5"></path><path d="M859.76 559.19L997.22 489.59" stroke="rgba(255, 192, 70, 1)" stroke-width="1.5"></path><path d="M859.76 559.19L670.32 535.86" stroke="rgba(255, 192, 70, 1)" stroke-width="1.5"></path><path d="M791.29 673.22L791.29 673.22" stroke="rgba(255, 192, 70, 1)" stroke-width="1.5"></path><path d="M791.29 673.22L958.41 666.2" stroke="rgba(255, 192, 70, 1)" stroke-width="1.5"></path><path d="M791.29 673.22L670.32 535.86" stroke="rgba(255, 192, 70, 1)" stroke-width="1.5"></path><path d="M993.53 -104.42L993.53 -104.42" stroke="rgba(255, 192, 70, 1)" stroke-width="1.5"></path><path d="M993.53 -104.42L1091.13 -40.84" stroke="rgba(255, 192, 70, 1)" stroke-width="1.5"></path><path d="M993.53 -104.42L986.77 61.59" stroke="rgba(255, 192, 70, 1)" stroke-width="1.5"></path><path d="M986.77 61.59L986.77 61.59" stroke="rgba(255, 192, 70, 1)" stroke-width="1.5"></path><path d="M986.77 61.59L1091.13 -40.84" stroke="rgba(255, 192, 70, 1)" stroke-width="1.5"></path><path d="M947.55 375L947.55 375" stroke="rgba(255, 192, 70, 1)" stroke-width="1.5"></path><path d="M947.55 375L997.22 489.59" stroke="rgba(255, 192, 70, 1)" stroke-width="1.5"></path><path d="M947.55 375L859.76 559.19" stroke="rgba(255, 192, 70, 1)" stroke-width="1.5"></path><path d="M947.55 375L1134.57 545.06" stroke="rgba(255, 192, 70, 1)" stroke-width="1.5"></path><path d="M947.55 375L676.93 361.13" stroke="rgba(255, 192, 70, 1)" stroke-width="1.5"></path><path d="M997.22 489.59L997.22 489.59" stroke="rgba(255, 192, 70, 1)" stroke-width="1.5"></path><path d="M997.22 489.59L1134.57 545.06" stroke="rgba(255, 192, 70, 1)" stroke-width="1.5"></path><path d="M997.22 489.59L958.41 666.2" stroke="rgba(255, 192, 70, 1)" stroke-width="1.5"></path><path d="M958.41 666.2L958.41 666.2" stroke="rgba(255, 192, 70, 1)" stroke-width="1.5"></path><path d="M958.41 666.2L1153.2 701.39" stroke="rgba(255, 192, 70, 1)" stroke-width="1.5"></path><path d="M958.41 666.2L1134.57 545.06" stroke="rgba(255, 192, 70, 1)" stroke-width="1.5"></path><path d="M958.41 666.2L679.71 657.34" stroke="rgba(255, 192, 70, 1)" stroke-width="1.5"></path><path d="M1091.13 -40.84L1091.13 -40.84" stroke="rgba(255, 192, 70, 1)" stroke-width="1.5"></path><path d="M1091.13 -40.84L1132.93 109.88" stroke="rgba(255, 192, 70, 1)" stroke-width="1.5"></path><path d="M1132.93 109.88L1132.93 109.88" stroke="rgba(255, 192, 70, 1)" stroke-width="1.5"></path><path d="M1132.93 109.88L1158.98 204.19" stroke="rgba(255, 192, 70, 1)" stroke-width="1.5"></path><path d="M1132.93 109.88L1251.89 194.51" stroke="rgba(255, 192, 70, 1)" stroke-width="1.5"></path><path d="M1132.93 109.88L986.77 61.59" stroke="rgba(255, 192, 70, 1)" stroke-width="1.5"></path><path d="M1132.93 109.88L1293.87 85.97" stroke="rgba(255, 192, 70, 1)" stroke-width="1.5"></path><path d="M1132.93 109.88L1280.12 -59.96" stroke="rgba(255, 192, 70, 1)" stroke-width="1.5"></path><path d="M1158.98 204.19L1158.98 204.19" stroke="rgba(255, 192, 70, 1)" stroke-width="1.5"></path><path d="M1158.98 204.19L1251.89 194.51" stroke="rgba(255, 192, 70, 1)" stroke-width="1.5"></path><path d="M1158.98 204.19L1293.87 85.97" stroke="rgba(255, 192, 70, 1)" stroke-width="1.5"></path><path d="M1158.98 204.19L986.77 61.59" stroke="rgba(255, 192, 70, 1)" stroke-width="1.5"></path><path d="M1158.98 204.19L1289.41 408.73" stroke="rgba(255, 192, 70, 1)" stroke-width="1.5"></path><path d="M1134.57 545.06L1134.57 545.06" stroke="rgba(255, 192, 70, 1)" stroke-width="1.5"></path><path d="M1134.57 545.06L1254.71 502.88" stroke="rgba(255, 192, 70, 1)" stroke-width="1.5"></path><path d="M1134.57 545.06L1153.2 701.39" stroke="rgba(255, 192, 70, 1)" stroke-width="1.5"></path><path d="M1153.2 701.39L1153.2 701.39" stroke="rgba(255, 192, 70, 1)" stroke-width="1.5"></path><path d="M1153.2 701.39L1295.06 704.33" stroke="rgba(255, 192, 70, 1)" stroke-width="1.5"></path><path d="M1153.2 701.39L1254.71 502.88" stroke="rgba(255, 192, 70, 1)" stroke-width="1.5"></path><path d="M1153.2 701.39L997.22 489.59" stroke="rgba(255, 192, 70, 1)" stroke-width="1.5"></path><path d="M1153.2 701.39L1432.96 652.88" stroke="rgba(255, 192, 70, 1)" stroke-width="1.5"></path><path d="M1280.12 -59.96L1280.12 -59.96" stroke="rgba(255, 192, 70, 1)" stroke-width="1.5"></path><path d="M1280.12 -59.96L1293.87 85.97" stroke="rgba(255, 192, 70, 1)" stroke-width="1.5"></path><path d="M1280.12 -59.96L1443 -88.99" stroke="rgba(255, 192, 70, 1)" stroke-width="1.5"></path><path d="M1293.87 85.97L1293.87 85.97" stroke="rgba(255, 192, 70, 1)" stroke-width="1.5"></path><path d="M1293.87 85.97L1251.89 194.51" stroke="rgba(255, 192, 70, 1)" stroke-width="1.5"></path><path d="M1293.87 85.97L1454.94 91.7" stroke="rgba(255, 192, 70, 1)" stroke-width="1.5"></path><path d="M1251.89 194.51L1251.89 194.51" stroke="rgba(255, 192, 70, 1)" stroke-width="1.5"></path><path d="M1251.89 194.51L1453.06 205.65" stroke="rgba(255, 192, 70, 1)" stroke-width="1.5"></path><path d="M1251.89 194.51L1289.41 408.73" stroke="rgba(255, 192, 70, 1)" stroke-width="1.5"></path><path d="M1251.89 194.51L1454.94 91.7" stroke="rgba(255, 192, 70, 1)" stroke-width="1.5"></path><path d="M1289.41 408.73L1289.41 408.73" stroke="rgba(255, 192, 70, 1)" stroke-width="1.5"></path><path d="M1289.41 408.73L1254.71 502.88" stroke="rgba(255, 192, 70, 1)" stroke-width="1.5"></path><path d="M1289.41 408.73L1401.98 383.6" stroke="rgba(255, 192, 70, 1)" stroke-width="1.5"></path><path d="M1289.41 408.73L1404.36 491.12" stroke="rgba(255, 192, 70, 1)" stroke-width="1.5"></path><path d="M1289.41 408.73L1134.57 545.06" stroke="rgba(255, 192, 70, 1)" stroke-width="1.5"></path><path d="M1254.71 502.88L1254.71 502.88" stroke="rgba(255, 192, 70, 1)" stroke-width="1.5"></path><path d="M1254.71 502.88L1404.36 491.12" stroke="rgba(255, 192, 70, 1)" stroke-width="1.5"></path><path d="M1254.71 502.88L1401.98 383.6" stroke="rgba(255, 192, 70, 1)" stroke-width="1.5"></path><path d="M1254.71 502.88L1295.06 704.33" stroke="rgba(255, 192, 70, 1)" stroke-width="1.5"></path><path d="M1295.06 704.33L1295.06 704.33" stroke="rgba(255, 192, 70, 1)" stroke-width="1.5"></path><path d="M1295.06 704.33L1432.96 652.88" stroke="rgba(255, 192, 70, 1)" stroke-width="1.5"></path><path d="M1443 -88.99L1443 -88.99" stroke="rgba(255, 192, 70, 1)" stroke-width="1.5"></path><path d="M1443 -88.99L1595.87 -79.49" stroke="rgba(255, 192, 70, 1)" stroke-width="1.5"></path><path d="M1443 -88.99L1454.94 91.7" stroke="rgba(255, 192, 70, 1)" stroke-width="1.5"></path><path d="M1443 -88.99L1592.43 41" stroke="rgba(255, 192, 70, 1)" stroke-width="1.5"></path><path d="M1443 -88.99L1293.87 85.97" stroke="rgba(255, 192, 70, 1)" stroke-width="1.5"></path><path d="M1443 -88.99L1453.06 205.65" stroke="rgba(255, 192, 70, 1)" stroke-width="1.5"></path><path d="M1454.94 91.7L1454.94 91.7" stroke="rgba(255, 192, 70, 1)" stroke-width="1.5"></path><path d="M1454.94 91.7L1453.06 205.65" stroke="rgba(255, 192, 70, 1)" stroke-width="1.5"></path><path d="M1454.94 91.7L1592.43 41" stroke="rgba(255, 192, 70, 1)" stroke-width="1.5"></path><path d="M1453.06 205.65L1453.06 205.65" stroke="rgba(255, 192, 70, 1)" stroke-width="1.5"></path><path d="M1453.06 205.65L1592.04 244.59" stroke="rgba(255, 192, 70, 1)" stroke-width="1.5"></path><path d="M1453.06 205.65L1401.98 383.6" stroke="rgba(255, 192, 70, 1)" stroke-width="1.5"></path><path d="M1453.06 205.65L1293.87 85.97" stroke="rgba(255, 192, 70, 1)" stroke-width="1.5"></path><path d="M1453.06 205.65L1592.43 41" stroke="rgba(255, 192, 70, 1)" stroke-width="1.5"></path><path d="M1401.98 383.6L1401.98 383.6" stroke="rgba(255, 192, 70, 1)" stroke-width="1.5"></path><path d="M1401.98 383.6L1404.36 491.12" stroke="rgba(255, 192, 70, 1)" stroke-width="1.5"></path><path d="M1401.98 383.6L1588.72 410.68" stroke="rgba(255, 192, 70, 1)" stroke-width="1.5"></path><path d="M1404.36 491.12L1404.36 491.12" stroke="rgba(255, 192, 70, 1)" stroke-width="1.5"></path><path d="M1404.36 491.12L1538.14 524.58" stroke="rgba(255, 192, 70, 1)" stroke-width="1.5"></path><path d="M1432.96 652.88L1432.96 652.88" stroke="rgba(255, 192, 70, 1)" stroke-width="1.5"></path><path d="M1432.96 652.88L1559.27 659.81" stroke="rgba(255, 192, 70, 1)" stroke-width="1.5"></path><path d="M1432.96 652.88L1404.36 491.12" stroke="rgba(255, 192, 70, 1)" stroke-width="1.5"></path><path d="M1432.96 652.88L1538.14 524.58" stroke="rgba(255, 192, 70, 1)" stroke-width="1.5"></path><path d="M1595.87 -79.49L1595.87 -79.49" stroke="rgba(255, 192, 70, 1)" stroke-width="1.5"></path><path d="M1595.87 -79.49L1592.43 41" stroke="rgba(255, 192, 70, 1)" stroke-width="1.5"></path><path d="M1595.87 -79.49L1454.94 91.7" stroke="rgba(255, 192, 70, 1)" stroke-width="1.5"></path><path d="M1592.43 41L1592.43 41" stroke="rgba(255, 192, 70, 1)" stroke-width="1.5"></path><path d="M1592.43 41L1592.04 244.59" stroke="rgba(255, 192, 70, 1)" stroke-width="1.5"></path><path d="M1592.43 41L1293.87 85.97" stroke="rgba(255, 192, 70, 1)" stroke-width="1.5"></path><path d="M1592.04 244.59L1592.04 244.59" stroke="rgba(255, 192, 70, 1)" stroke-width="1.5"></path><path d="M1592.04 244.59L1588.72 410.68" stroke="rgba(255, 192, 70, 1)" stroke-width="1.5"></path><path d="M1592.04 244.59L1454.94 91.7" stroke="rgba(255, 192, 70, 1)" stroke-width="1.5"></path><path d="M1592.04 244.59L1401.98 383.6" stroke="rgba(255, 192, 70, 1)" stroke-width="1.5"></path><path d="M1592.04 244.59L1538.14 524.58" stroke="rgba(255, 192, 70, 1)" stroke-width="1.5"></path><path d="M1588.72 410.68L1588.72 410.68" stroke="rgba(255, 192, 70, 1)" stroke-width="1.5"></path><path d="M1588.72 410.68L1538.14 524.58" stroke="rgba(255, 192, 70, 1)" stroke-width="1.5"></path><path d="M1588.72 410.68L1404.36 491.12" stroke="rgba(255, 192, 70, 1)" stroke-width="1.5"></path><path d="M1588.72 410.68L1453.06 205.65" stroke="rgba(255, 192, 70, 1)" stroke-width="1.5"></path><path d="M1538.14 524.58L1538.14 524.58" stroke="rgba(255, 192, 70, 1)" stroke-width="1.5"></path><path d="M1538.14 524.58L1559.27 659.81" stroke="rgba(255, 192, 70, 1)" stroke-width="1.5"></path><path d="M1559.27 659.81L1559.27 659.81" stroke="rgba(255, 192, 70, 1)" stroke-width="1.5"></path><path d="M1559.27 659.81L1404.36 491.12" stroke="rgba(255, 192, 70, 1)" stroke-width="1.5"></path><circle r="5" cx="-99.52" cy="511.97" fill="rgba(255, 192, 70, 1)"></circle><circle r="5" cx="-104.77" cy="665.33" fill="rgba(255, 192, 70, 1)"></circle><circle r="5" cx="104.15" cy="351.5" fill="rgba(255, 192, 70, 1)"></circle><circle r="5" cx="40.8" cy="561.3" fill="rgba(255, 192, 70, 1)"></circle><circle r="5" cx="61.28" cy="699.41" fill="rgba(255, 192, 70, 1)"></circle><circle r="5" cx="253.83" cy="408.33" fill="rgba(255, 192, 70, 1)"></circle><circle r="5" cx="189.23" cy="521.51" fill="rgba(255, 192, 70, 1)"></circle><circle r="5" cx="204.28" cy="639.55" fill="rgba(255, 192, 70, 1)"></circle><circle r="5" cx="410.78" cy="349.39" fill="rgba(255, 192, 70, 1)"></circle><circle r="5" cx="360.11" cy="511.55" fill="rgba(255, 192, 70, 1)"></circle><circle r="5" cx="401.5" cy="663.58" fill="rgba(255, 192, 70, 1)"></circle><circle r="5" cx="548.26" cy="411.11" fill="rgba(255, 192, 70, 1)"></circle><circle r="5" cx="561.98" cy="494.43" fill="rgba(255, 192, 70, 1)"></circle><circle r="5" cx="562.02" cy="648.63" fill="rgba(255, 192, 70, 1)"></circle><circle r="5" cx="676.93" cy="361.13" fill="rgba(255, 192, 70, 1)"></circle><circle r="5" cx="670.32" cy="535.86" fill="rgba(255, 192, 70, 1)"></circle><circle r="5" cx="679.71" cy="657.34" fill="rgba(255, 192, 70, 1)"></circle><circle r="5" cx="851.55" cy="64.52" fill="rgba(255, 192, 70, 1)"></circle><circle r="5" cx="804.38" cy="375.93" fill="rgba(255, 192, 70, 1)"></circle><circle r="5" cx="859.76" cy="559.19" fill="rgba(255, 192, 70, 1)"></circle><circle r="5" cx="791.29" cy="673.22" fill="rgba(255, 192, 70, 1)"></circle><circle r="5" cx="993.53" cy="-104.42" fill="rgba(255, 192, 70, 1)"></circle><circle r="5" cx="986.77" cy="61.59" fill="rgba(255, 192, 70, 1)"></circle><circle r="5" cx="947.55" cy="375" fill="rgba(255, 192, 70, 1)"></circle><circle r="5" cx="997.22" cy="489.59" fill="rgba(255, 192, 70, 1)"></circle><circle r="5" cx="958.41" cy="666.2" fill="rgba(255, 192, 70, 1)"></circle><circle r="5" cx="1091.13" cy="-40.84" fill="rgba(255, 192, 70, 1)"></circle><circle r="5" cx="1132.93" cy="109.88" fill="rgba(255, 192, 70, 1)"></circle><circle r="5" cx="1158.98" cy="204.19" fill="rgba(255, 192, 70, 1)"></circle><circle r="5" cx="1134.57" cy="545.06" fill="rgba(255, 192, 70, 1)"></circle><circle r="5" cx="1153.2" cy="701.39" fill="rgba(255, 192, 70, 1)"></circle><circle r="5" cx="1280.12" cy="-59.96" fill="rgba(255, 192, 70, 1)"></circle><circle r="5" cx="1293.87" cy="85.97" fill="rgba(255, 192, 70, 1)"></circle><circle r="5" cx="1251.89" cy="194.51" fill="rgba(255, 192, 70, 1)"></circle><circle r="5" cx="1289.41" cy="408.73" fill="rgba(255, 192, 70, 1)"></circle><circle r="5" cx="1254.71" cy="502.88" fill="rgba(255, 192, 70, 1)"></circle><circle r="5" cx="1295.06" cy="704.33" fill="rgba(255, 192, 70, 1)"></circle><circle r="5" cx="1443" cy="-88.99" fill="rgba(255, 192, 70, 1)"></circle><circle r="5" cx="1454.94" cy="91.7" fill="rgba(255, 192, 70, 1)"></circle><circle r="5" cx="1453.06" cy="205.65" fill="rgba(255, 192, 70, 1)"></circle><circle r="5" cx="1401.98" cy="383.6" fill="rgba(255, 192, 70, 1)"></circle><circle r="5" cx="1404.36" cy="491.12" fill="rgba(255, 192, 70, 1)"></circle><circle r="5" cx="1432.96" cy="652.88" fill="rgba(255, 192, 70, 1)"></circle><circle r="5" cx="1595.87" cy="-79.49" fill="rgba(255, 192, 70, 1)"></circle><circle r="5" cx="1592.43" cy="41" fill="rgba(255, 192, 70, 1)"></circle><circle r="5" cx="1592.04" cy="244.59" fill="rgba(255, 192, 70, 1)"></circle><circle r="5" cx="1588.72" cy="410.68" fill="rgba(255, 192, 70, 1)"></circle><circle r="5" cx="1538.14" cy="524.58" fill="rgba(255, 192, 70, 1)"></circle><circle r="5" cx="1559.27" cy="659.81" fill="rgba(255, 192, 70, 1)"></circle><path d="M66.67 554.59L66.67 554.59" stroke="hsl(220.79999999999995, 48.4%, 64.2%)" stroke-width="1.5"></path><path d="M66.67 554.59L112.18 641.1" stroke="hsl(220.79999999999995, 48.4%, 64.2%)" stroke-width="1.5"></path><path d="M66.67 554.59L-89.94 519.5" stroke="hsl(220.79999999999995, 48.4%, 64.2%)" stroke-width="1.5"></path><path d="M66.67 554.59L254 499.43" stroke="hsl(220.79999999999995, 48.4%, 64.2%)" stroke-width="1.5"></path><path d="M66.67 554.59L-104.44 652.23" stroke="hsl(220.79999999999995, 48.4%, 64.2%)" stroke-width="1.5"></path><path d="M254 499.43L254 499.43" stroke="hsl(220.79999999999995, 48.4%, 64.2%)" stroke-width="1.5"></path><path d="M254 499.43L383.02 524.81" stroke="hsl(220.79999999999995, 48.4%, 64.2%)" stroke-width="1.5"></path><path d="M254 499.43L254.22 692.61" stroke="hsl(220.79999999999995, 48.4%, 64.2%)" stroke-width="1.5"></path><path d="M254 499.43L112.18 641.1" stroke="hsl(220.79999999999995, 48.4%, 64.2%)" stroke-width="1.5"></path><path d="M254 499.43L377.89 692.53" stroke="hsl(220.79999999999995, 48.4%, 64.2%)" stroke-width="1.5"></path><path d="M254 499.43L509.19 408.98" stroke="hsl(220.79999999999995, 48.4%, 64.2%)" stroke-width="1.5"></path><path d="M509.19 408.98L509.19 408.98" stroke="hsl(220.79999999999995, 48.4%, 64.2%)" stroke-width="1.5"></path><path d="M509.19 408.98L548.29 510.4" stroke="hsl(220.79999999999995, 48.4%, 64.2%)" stroke-width="1.5"></path><path d="M509.19 408.98L383.02 524.81" stroke="hsl(220.79999999999995, 48.4%, 64.2%)" stroke-width="1.5"></path><path d="M509.19 408.98L552.47 642.11" stroke="hsl(220.79999999999995, 48.4%, 64.2%)" stroke-width="1.5"></path><path d="M509.19 408.98L691.06 562.12" stroke="hsl(220.79999999999995, 48.4%, 64.2%)" stroke-width="1.5"></path><path d="M509.19 408.98L671.12 649.58" stroke="hsl(220.79999999999995, 48.4%, 64.2%)" stroke-width="1.5"></path><path d="M992.75 669.47L992.75 669.47" stroke="hsl(220.79999999999995, 48.4%, 64.2%)" stroke-width="1.5"></path><path d="M992.75 669.47L1121.71 695.13" stroke="hsl(220.79999999999995, 48.4%, 64.2%)" stroke-width="1.5"></path><path d="M992.75 669.47L974.51 509.87" stroke="hsl(220.79999999999995, 48.4%, 64.2%)" stroke-width="1.5"></path><path d="M992.75 669.47L794.26 680.13" stroke="hsl(220.79999999999995, 48.4%, 64.2%)" stroke-width="1.5"></path><path d="M992.75 669.47L1133.22 513.12" stroke="hsl(220.79999999999995, 48.4%, 64.2%)" stroke-width="1.5"></path><path d="M992.75 669.47L1256.28 649.56" stroke="hsl(220.79999999999995, 48.4%, 64.2%)" stroke-width="1.5"></path><path d="M992.75 669.47L796.95 488.29" stroke="hsl(220.79999999999995, 48.4%, 64.2%)" stroke-width="1.5"></path><path d="M1133.22 513.12L1133.22 513.12" stroke="hsl(220.79999999999995, 48.4%, 64.2%)" stroke-width="1.5"></path><path d="M1133.22 513.12L974.51 509.87" stroke="hsl(220.79999999999995, 48.4%, 64.2%)" stroke-width="1.5"></path><path d="M1133.22 513.12L1294.51 491.9" stroke="hsl(220.79999999999995, 48.4%, 64.2%)" stroke-width="1.5"></path><path d="M1133.22 513.12L1108.06 349.39" stroke="hsl(220.79999999999995, 48.4%, 64.2%)" stroke-width="1.5"></path><path d="M1133.22 513.12L992.75 398.34" stroke="hsl(220.79999999999995, 48.4%, 64.2%)" stroke-width="1.5"></path><path d="M1121.71 695.13L1121.71 695.13" stroke="hsl(220.79999999999995, 48.4%, 64.2%)" stroke-width="1.5"></path><path d="M1121.71 695.13L1256.28 649.56" stroke="hsl(220.79999999999995, 48.4%, 64.2%)" stroke-width="1.5"></path><path d="M1397.53 238.08L1397.53 238.08" stroke="hsl(220.79999999999995, 48.4%, 64.2%)" stroke-width="1.5"></path><path d="M1397.53 238.08L1434.37 344.39" stroke="hsl(220.79999999999995, 48.4%, 64.2%)" stroke-width="1.5"></path><path d="M1397.53 238.08L1425.4 102.95" stroke="hsl(220.79999999999995, 48.4%, 64.2%)" stroke-width="1.5"></path><path d="M1397.53 238.08L1244.63 226.08" stroke="hsl(220.79999999999995, 48.4%, 64.2%)" stroke-width="1.5"></path><path d="M1434.74 666.35L1434.74 666.35" stroke="hsl(220.79999999999995, 48.4%, 64.2%)" stroke-width="1.5"></path><path d="M1434.74 666.35L1540.75 676.48" stroke="hsl(220.79999999999995, 48.4%, 64.2%)" stroke-width="1.5"></path><path d="M1434.74 666.35L1428.14 544.98" stroke="hsl(220.79999999999995, 48.4%, 64.2%)" stroke-width="1.5"></path><path d="M1434.74 666.35L1256.28 649.56" stroke="hsl(220.79999999999995, 48.4%, 64.2%)" stroke-width="1.5"></path><path d="M1434.74 666.35L1600.12 551.75" stroke="hsl(220.79999999999995, 48.4%, 64.2%)" stroke-width="1.5"></path><path d="M1434.74 666.35L1294.51 491.9" stroke="hsl(220.79999999999995, 48.4%, 64.2%)" stroke-width="1.5"></path><path d="M1555.29 241.21L1555.29 241.21" stroke="hsl(220.79999999999995, 48.4%, 64.2%)" stroke-width="1.5"></path><path d="M1555.29 241.21L1565.43 83.97" stroke="hsl(220.79999999999995, 48.4%, 64.2%)" stroke-width="1.5"></path><path d="M1555.29 241.21L1397.53 238.08" stroke="hsl(220.79999999999995, 48.4%, 64.2%)" stroke-width="1.5"></path><path d="M1555.29 241.21L1434.37 344.39" stroke="hsl(220.79999999999995, 48.4%, 64.2%)" stroke-width="1.5"></path><path d="M1555.29 241.21L1547.48 401.39" stroke="hsl(220.79999999999995, 48.4%, 64.2%)" stroke-width="1.5"></path><path d="M-89.94 519.5L-89.94 519.5" stroke="hsl(220.79999999999995, 48.4%, 64.2%)" stroke-width="1.5"></path><path d="M-89.94 519.5L-104.44 652.23" stroke="hsl(220.79999999999995, 48.4%, 64.2%)" stroke-width="1.5"></path><path d="M-89.94 519.5L112.18 641.1" stroke="hsl(220.79999999999995, 48.4%, 64.2%)" stroke-width="1.5"></path><path d="M-89.94 519.5L254 499.43" stroke="hsl(220.79999999999995, 48.4%, 64.2%)" stroke-width="1.5"></path><path d="M-89.94 519.5L254.22 692.61" stroke="hsl(220.79999999999995, 48.4%, 64.2%)" stroke-width="1.5"></path><path d="M-104.44 652.23L-104.44 652.23" stroke="hsl(220.79999999999995, 48.4%, 64.2%)" stroke-width="1.5"></path><path d="M-104.44 652.23L112.18 641.1" stroke="hsl(220.79999999999995, 48.4%, 64.2%)" stroke-width="1.5"></path><path d="M-104.44 652.23L254.22 692.61" stroke="hsl(220.79999999999995, 48.4%, 64.2%)" stroke-width="1.5"></path><path d="M-104.44 652.23L254 499.43" stroke="hsl(220.79999999999995, 48.4%, 64.2%)" stroke-width="1.5"></path><path d="M112.18 641.1L112.18 641.1" stroke="hsl(220.79999999999995, 48.4%, 64.2%)" stroke-width="1.5"></path><path d="M112.18 641.1L254.22 692.61" stroke="hsl(220.79999999999995, 48.4%, 64.2%)" stroke-width="1.5"></path><path d="M254.22 692.61L254.22 692.61" stroke="hsl(220.79999999999995, 48.4%, 64.2%)" stroke-width="1.5"></path><path d="M254.22 692.61L377.89 692.53" stroke="hsl(220.79999999999995, 48.4%, 64.2%)" stroke-width="1.5"></path><path d="M254.22 692.61L383.02 524.81" stroke="hsl(220.79999999999995, 48.4%, 64.2%)" stroke-width="1.5"></path><path d="M254.22 692.61L66.67 554.59" stroke="hsl(220.79999999999995, 48.4%, 64.2%)" stroke-width="1.5"></path><path d="M254.22 692.61L552.47 642.11" stroke="hsl(220.79999999999995, 48.4%, 64.2%)" stroke-width="1.5"></path><path d="M383.02 524.81L383.02 524.81" stroke="hsl(220.79999999999995, 48.4%, 64.2%)" stroke-width="1.5"></path><path d="M383.02 524.81L548.29 510.4" stroke="hsl(220.79999999999995, 48.4%, 64.2%)" stroke-width="1.5"></path><path d="M383.02 524.81L377.89 692.53" stroke="hsl(220.79999999999995, 48.4%, 64.2%)" stroke-width="1.5"></path><path d="M377.89 692.53L377.89 692.53" stroke="hsl(220.79999999999995, 48.4%, 64.2%)" stroke-width="1.5"></path><path d="M377.89 692.53L552.47 642.11" stroke="hsl(220.79999999999995, 48.4%, 64.2%)" stroke-width="1.5"></path><path d="M377.89 692.53L548.29 510.4" stroke="hsl(220.79999999999995, 48.4%, 64.2%)" stroke-width="1.5"></path><path d="M377.89 692.53L112.18 641.1" stroke="hsl(220.79999999999995, 48.4%, 64.2%)" stroke-width="1.5"></path><path d="M548.29 510.4L548.29 510.4" stroke="hsl(220.79999999999995, 48.4%, 64.2%)" stroke-width="1.5"></path><path d="M548.29 510.4L552.47 642.11" stroke="hsl(220.79999999999995, 48.4%, 64.2%)" stroke-width="1.5"></path><path d="M548.29 510.4L691.06 562.12" stroke="hsl(220.79999999999995, 48.4%, 64.2%)" stroke-width="1.5"></path><path d="M548.29 510.4L671.12 649.58" stroke="hsl(220.79999999999995, 48.4%, 64.2%)" stroke-width="1.5"></path><path d="M552.47 642.11L552.47 642.11" stroke="hsl(220.79999999999995, 48.4%, 64.2%)" stroke-width="1.5"></path><path d="M552.47 642.11L671.12 649.58" stroke="hsl(220.79999999999995, 48.4%, 64.2%)" stroke-width="1.5"></path><path d="M552.47 642.11L691.06 562.12" stroke="hsl(220.79999999999995, 48.4%, 64.2%)" stroke-width="1.5"></path><path d="M691.06 562.12L691.06 562.12" stroke="hsl(220.79999999999995, 48.4%, 64.2%)" stroke-width="1.5"></path><path d="M691.06 562.12L671.12 649.58" stroke="hsl(220.79999999999995, 48.4%, 64.2%)" stroke-width="1.5"></path><path d="M691.06 562.12L796.95 488.29" stroke="hsl(220.79999999999995, 48.4%, 64.2%)" stroke-width="1.5"></path><path d="M671.12 649.58L671.12 649.58" stroke="hsl(220.79999999999995, 48.4%, 64.2%)" stroke-width="1.5"></path><path d="M671.12 649.58L794.26 680.13" stroke="hsl(220.79999999999995, 48.4%, 64.2%)" stroke-width="1.5"></path><path d="M796.95 488.29L796.95 488.29" stroke="hsl(220.79999999999995, 48.4%, 64.2%)" stroke-width="1.5"></path><path d="M796.95 488.29L974.51 509.87" stroke="hsl(220.79999999999995, 48.4%, 64.2%)" stroke-width="1.5"></path><path d="M796.95 488.29L794.26 680.13" stroke="hsl(220.79999999999995, 48.4%, 64.2%)" stroke-width="1.5"></path><path d="M796.95 488.29L671.12 649.58" stroke="hsl(220.79999999999995, 48.4%, 64.2%)" stroke-width="1.5"></path><path d="M796.95 488.29L992.75 398.34" stroke="hsl(220.79999999999995, 48.4%, 64.2%)" stroke-width="1.5"></path><path d="M796.95 488.29L548.29 510.4" stroke="hsl(220.79999999999995, 48.4%, 64.2%)" stroke-width="1.5"></path><path d="M794.26 680.13L794.26 680.13" stroke="hsl(220.79999999999995, 48.4%, 64.2%)" stroke-width="1.5"></path><path d="M794.26 680.13L691.06 562.12" stroke="hsl(220.79999999999995, 48.4%, 64.2%)" stroke-width="1.5"></path><path d="M794.26 680.13L552.47 642.11" stroke="hsl(220.79999999999995, 48.4%, 64.2%)" stroke-width="1.5"></path><path d="M794.26 680.13L974.51 509.87" stroke="hsl(220.79999999999995, 48.4%, 64.2%)" stroke-width="1.5"></path><path d="M947.04 256.09L947.04 256.09" stroke="hsl(220.79999999999995, 48.4%, 64.2%)" stroke-width="1.5"></path><path d="M947.04 256.09L992.75 398.34" stroke="hsl(220.79999999999995, 48.4%, 64.2%)" stroke-width="1.5"></path><path d="M947.04 256.09L1094.03 191.57" stroke="hsl(220.79999999999995, 48.4%, 64.2%)" stroke-width="1.5"></path><path d="M947.04 256.09L1108.06 349.39" stroke="hsl(220.79999999999995, 48.4%, 64.2%)" stroke-width="1.5"></path><path d="M947.04 256.09L974.51 509.87" stroke="hsl(220.79999999999995, 48.4%, 64.2%)" stroke-width="1.5"></path><path d="M947.04 256.09L796.95 488.29" stroke="hsl(220.79999999999995, 48.4%, 64.2%)" stroke-width="1.5"></path><path d="M947.04 256.09L1244.63 226.08" stroke="hsl(220.79999999999995, 48.4%, 64.2%)" stroke-width="1.5"></path><path d="M992.75 398.34L992.75 398.34" stroke="hsl(220.79999999999995, 48.4%, 64.2%)" stroke-width="1.5"></path><path d="M992.75 398.34L974.51 509.87" stroke="hsl(220.79999999999995, 48.4%, 64.2%)" stroke-width="1.5"></path><path d="M992.75 398.34L1108.06 349.39" stroke="hsl(220.79999999999995, 48.4%, 64.2%)" stroke-width="1.5"></path><path d="M974.51 509.87L974.51 509.87" stroke="hsl(220.79999999999995, 48.4%, 64.2%)" stroke-width="1.5"></path><path d="M1094.03 191.57L1094.03 191.57" stroke="hsl(220.79999999999995, 48.4%, 64.2%)" stroke-width="1.5"></path><path d="M1094.03 191.57L1244.63 226.08" stroke="hsl(220.79999999999995, 48.4%, 64.2%)" stroke-width="1.5"></path><path d="M1094.03 191.57L1108.06 349.39" stroke="hsl(220.79999999999995, 48.4%, 64.2%)" stroke-width="1.5"></path><path d="M1108.06 349.39L1108.06 349.39" stroke="hsl(220.79999999999995, 48.4%, 64.2%)" stroke-width="1.5"></path><path d="M1108.06 349.39L1244.63 226.08" stroke="hsl(220.79999999999995, 48.4%, 64.2%)" stroke-width="1.5"></path><path d="M1108.06 349.39L1287.69 404.46" stroke="hsl(220.79999999999995, 48.4%, 64.2%)" stroke-width="1.5"></path><path d="M1282.54 -73.99L1282.54 -73.99" stroke="hsl(220.79999999999995, 48.4%, 64.2%)" stroke-width="1.5"></path><path d="M1282.54 -73.99L1240.35 71.76" stroke="hsl(220.79999999999995, 48.4%, 64.2%)" stroke-width="1.5"></path><path d="M1282.54 -73.99L1458.54 -81.53" stroke="hsl(220.79999999999995, 48.4%, 64.2%)" stroke-width="1.5"></path><path d="M1282.54 -73.99L1425.4 102.95" stroke="hsl(220.79999999999995, 48.4%, 64.2%)" stroke-width="1.5"></path><path d="M1282.54 -73.99L1244.63 226.08" stroke="hsl(220.79999999999995, 48.4%, 64.2%)" stroke-width="1.5"></path><path d="M1240.35 71.76L1240.35 71.76" stroke="hsl(220.79999999999995, 48.4%, 64.2%)" stroke-width="1.5"></path><path d="M1240.35 71.76L1244.63 226.08" stroke="hsl(220.79999999999995, 48.4%, 64.2%)" stroke-width="1.5"></path><path d="M1240.35 71.76L1425.4 102.95" stroke="hsl(220.79999999999995, 48.4%, 64.2%)" stroke-width="1.5"></path><path d="M1244.63 226.08L1244.63 226.08" stroke="hsl(220.79999999999995, 48.4%, 64.2%)" stroke-width="1.5"></path><path d="M1244.63 226.08L1287.69 404.46" stroke="hsl(220.79999999999995, 48.4%, 64.2%)" stroke-width="1.5"></path><path d="M1287.69 404.46L1287.69 404.46" stroke="hsl(220.79999999999995, 48.4%, 64.2%)" stroke-width="1.5"></path><path d="M1287.69 404.46L1294.51 491.9" stroke="hsl(220.79999999999995, 48.4%, 64.2%)" stroke-width="1.5"></path><path d="M1287.69 404.46L1434.37 344.39" stroke="hsl(220.79999999999995, 48.4%, 64.2%)" stroke-width="1.5"></path><path d="M1287.69 404.46L1133.22 513.12" stroke="hsl(220.79999999999995, 48.4%, 64.2%)" stroke-width="1.5"></path><path d="M1287.69 404.46L1428.14 544.98" stroke="hsl(220.79999999999995, 48.4%, 64.2%)" stroke-width="1.5"></path><path d="M1294.51 491.9L1294.51 491.9" stroke="hsl(220.79999999999995, 48.4%, 64.2%)" stroke-width="1.5"></path><path d="M1294.51 491.9L1428.14 544.98" stroke="hsl(220.79999999999995, 48.4%, 64.2%)" stroke-width="1.5"></path><path d="M1294.51 491.9L1256.28 649.56" stroke="hsl(220.79999999999995, 48.4%, 64.2%)" stroke-width="1.5"></path><path d="M1256.28 649.56L1256.28 649.56" stroke="hsl(220.79999999999995, 48.4%, 64.2%)" stroke-width="1.5"></path><path d="M1256.28 649.56L1133.22 513.12" stroke="hsl(220.79999999999995, 48.4%, 64.2%)" stroke-width="1.5"></path><path d="M1458.54 -81.53L1458.54 -81.53" stroke="hsl(220.79999999999995, 48.4%, 64.2%)" stroke-width="1.5"></path><path d="M1458.54 -81.53L1592.87 -108.7" stroke="hsl(220.79999999999995, 48.4%, 64.2%)" stroke-width="1.5"></path><path d="M1458.54 -81.53L1425.4 102.95" stroke="hsl(220.79999999999995, 48.4%, 64.2%)" stroke-width="1.5"></path><path d="M1458.54 -81.53L1565.43 83.97" stroke="hsl(220.79999999999995, 48.4%, 64.2%)" stroke-width="1.5"></path><path d="M1458.54 -81.53L1240.35 71.76" stroke="hsl(220.79999999999995, 48.4%, 64.2%)" stroke-width="1.5"></path><path d="M1458.54 -81.53L1397.53 238.08" stroke="hsl(220.79999999999995, 48.4%, 64.2%)" stroke-width="1.5"></path><path d="M1425.4 102.95L1425.4 102.95" stroke="hsl(220.79999999999995, 48.4%, 64.2%)" stroke-width="1.5"></path><path d="M1425.4 102.95L1565.43 83.97" stroke="hsl(220.79999999999995, 48.4%, 64.2%)" stroke-width="1.5"></path><path d="M1434.37 344.39L1434.37 344.39" stroke="hsl(220.79999999999995, 48.4%, 64.2%)" stroke-width="1.5"></path><path d="M1434.37 344.39L1547.48 401.39" stroke="hsl(220.79999999999995, 48.4%, 64.2%)" stroke-width="1.5"></path><path d="M1428.14 544.98L1428.14 544.98" stroke="hsl(220.79999999999995, 48.4%, 64.2%)" stroke-width="1.5"></path><path d="M1428.14 544.98L1600.12 551.75" stroke="hsl(220.79999999999995, 48.4%, 64.2%)" stroke-width="1.5"></path><path d="M1428.14 544.98L1540.75 676.48" stroke="hsl(220.79999999999995, 48.4%, 64.2%)" stroke-width="1.5"></path><path d="M1428.14 544.98L1547.48 401.39" stroke="hsl(220.79999999999995, 48.4%, 64.2%)" stroke-width="1.5"></path><path d="M1592.87 -108.7L1592.87 -108.7" stroke="hsl(220.79999999999995, 48.4%, 64.2%)" stroke-width="1.5"></path><path d="M1592.87 -108.7L1565.43 83.97" stroke="hsl(220.79999999999995, 48.4%, 64.2%)" stroke-width="1.5"></path><path d="M1592.87 -108.7L1425.4 102.95" stroke="hsl(220.79999999999995, 48.4%, 64.2%)" stroke-width="1.5"></path><path d="M1565.43 83.97L1565.43 83.97" stroke="hsl(220.79999999999995, 48.4%, 64.2%)" stroke-width="1.5"></path><path d="M1565.43 83.97L1397.53 238.08" stroke="hsl(220.79999999999995, 48.4%, 64.2%)" stroke-width="1.5"></path><path d="M1565.43 83.97L1434.37 344.39" stroke="hsl(220.79999999999995, 48.4%, 64.2%)" stroke-width="1.5"></path><path d="M1547.48 401.39L1547.48 401.39" stroke="hsl(220.79999999999995, 48.4%, 64.2%)" stroke-width="1.5"></path><path d="M1547.48 401.39L1600.12 551.75" stroke="hsl(220.79999999999995, 48.4%, 64.2%)" stroke-width="1.5"></path><path d="M1600.12 551.75L1600.12 551.75" stroke="hsl(220.79999999999995, 48.4%, 64.2%)" stroke-width="1.5"></path><path d="M1600.12 551.75L1540.75 676.48" stroke="hsl(220.79999999999995, 48.4%, 64.2%)" stroke-width="1.5"></path><path d="M1540.75 676.48L1540.75 676.48" stroke="hsl(220.79999999999995, 48.4%, 64.2%)" stroke-width="1.5"></path><circle r="25" cx="66.67" cy="554.59" fill="url(#SvgjsRadialGradient1066)"></circle><circle r="25" cx="254" cy="499.43" fill="url(#SvgjsRadialGradient1066)"></circle><circle r="25" cx="509.19" cy="408.98" fill="url(#SvgjsRadialGradient1066)"></circle><circle r="25" cx="992.75" cy="669.47" fill="url(#SvgjsRadialGradient1066)"></circle><circle r="25" cx="1133.22" cy="513.12" fill="url(#SvgjsRadialGradient1066)"></circle><circle r="25" cx="1121.71" cy="695.13" fill="url(#SvgjsRadialGradient1066)"></circle><circle r="25" cx="1397.53" cy="238.08" fill="url(#SvgjsRadialGradient1066)"></circle><circle r="25" cx="1434.74" cy="666.35" fill="url(#SvgjsRadialGradient1066)"></circle><circle r="25" cx="1555.29" cy="241.21" fill="url(#SvgjsRadialGradient1066)"></circle><circle r="5" cx="-89.94" cy="519.5" fill="#a0b4dd"></circle><circle r="5" cx="-104.44" cy="652.23" fill="#a0b4dd"></circle><circle r="5" cx="112.18" cy="641.1" fill="#a0b4dd"></circle><circle r="5" cx="254.22" cy="692.61" fill="#a0b4dd"></circle><circle r="5" cx="383.02" cy="524.81" fill="#a0b4dd"></circle><circle r="5" cx="377.89" cy="692.53" fill="#a0b4dd"></circle><circle r="5" cx="548.29" cy="510.4" fill="#a0b4dd"></circle><circle r="5" cx="552.47" cy="642.11" fill="#a0b4dd"></circle><circle r="5" cx="691.06" cy="562.12" fill="#a0b4dd"></circle><circle r="5" cx="671.12" cy="649.58" fill="#a0b4dd"></circle><circle r="5" cx="796.95" cy="488.29" fill="#a0b4dd"></circle><circle r="5" cx="794.26" cy="680.13" fill="#a0b4dd"></circle><circle r="5" cx="947.04" cy="256.09" fill="#a0b4dd"></circle><circle r="5" cx="992.75" cy="398.34" fill="#a0b4dd"></circle><circle r="5" cx="974.51" cy="509.87" fill="#a0b4dd"></circle><circle r="5" cx="1094.03" cy="191.57" fill="#a0b4dd"></circle><circle r="5" cx="1108.06" cy="349.39" fill="#a0b4dd"></circle><circle r="5" cx="1282.54" cy="-73.99" fill="#a0b4dd"></circle><circle r="5" cx="1240.35" cy="71.76" fill="#a0b4dd"></circle><circle r="5" cx="1244.63" cy="226.08" fill="#a0b4dd"></circle><circle r="5" cx="1287.69" cy="404.46" fill="#a0b4dd"></circle><circle r="5" cx="1294.51" cy="491.9" fill="#a0b4dd"></circle><circle r="5" cx="1256.28" cy="649.56" fill="#a0b4dd"></circle><circle r="5" cx="1458.54" cy="-81.53" fill="#a0b4dd"></circle><circle r="5" cx="1425.4" cy="102.95" fill="#a0b4dd"></circle><circle r="5" cx="1434.37" cy="344.39" fill="#a0b4dd"></circle><circle r="5" cx="1428.14" cy="544.98" fill="#a0b4dd"></circle><circle r="5" cx="1592.87" cy="-108.7" fill="#a0b4dd"></circle><circle r="5" cx="1565.43" cy="83.97" fill="#a0b4dd"></circle><circle r="5" cx="1547.48" cy="401.39" fill="#a0b4dd"></circle><circle r="5" cx="1600.12" cy="551.75" fill="#a0b4dd"></circle><circle r="5" cx="1540.75" cy="676.48" fill="#a0b4dd"></circle></g><defs><mask id="SvgjsMask1065"><rect width="1440" height="560" fill="#ffffff"></rect></mask><radialGradient id="SvgjsRadialGradient1066"><stop stop-color="#ffffff" offset="0.1"></stop><stop stop-color="rgba(65, 104, 187, 1)" offset="0.2"></stop><stop stop-color="rgba(65, 104, 187, 0)" offset="1"></stop></radialGradient></defs></svg>