<?xml version="1.0" standalone="no"?>
<!DOCTYPE svg PUBLIC "-//W3C//DTD SVG 20010904//EN"
 "http://www.w3.org/TR/2001/REC-SVG-20010904/DTD/svg10.dtd">
<svg version="1.0" xmlns="http://www.w3.org/2000/svg"
 width="1887.000000pt" height="1887.000000pt" viewBox="0 0 1887.000000 1887.000000"
 preserveAspectRatio="xMidYMid meet">
<metadata>
Created by potrace 1.14, written by Peter Selinger 2001-2017
</metadata>
<g transform="translate(0.000000,1887.000000) scale(0.100000,-0.100000)"
fill="#000000" stroke="none">
<path d="M4697 17578 c-9 -18 -30 -55 -46 -83 -17 -27 -40 -67 -51 -88 -12
-21 -48 -83 -81 -138 -32 -55 -59 -102 -59 -104 0 -3 -11 -24 -26 -46 -14 -22
-34 -57 -46 -77 -21 -39 -121 -213 -150 -262 -9 -15 -78 -136 -153 -267 -76
-131 -141 -242 -145 -248 -4 -5 -19 -30 -32 -55 -40 -72 -58 -103 -233 -405
-70 -121 -137 -238 -150 -260 -12 -22 -63 -110 -112 -195 -49 -85 -134 -231
-187 -324 -54 -93 -100 -175 -103 -182 -4 -11 3 -11 38 2 65 22 304 82 379 93
36 6 81 13 101 16 200 32 633 37 819 10 87 -12 109 -15 145 -20 49 -6 170 -32
245 -52 30 -8 63 -16 72 -18 96 -21 359 -128 498 -202 246 -131 486 -325 661
-534 l38 -46 -37 -33 c-38 -33 -175 -158 -267 -241 -27 -25 -81 -74 -120 -109
-38 -35 -90 -82 -115 -104 -164 -149 -258 -234 -280 -253 -14 -13 -28 -23 -32
-23 -4 0 -27 21 -50 47 -370 404 -789 554 -1333 477 -79 -11 -252 -66 -341
-108 -250 -118 -442 -309 -562 -556 -48 -97 -93 -219 -107 -287 -63 -298 -50
-620 35 -873 67 -202 158 -351 299 -491 205 -203 459 -323 756 -357 134 -15
344 -7 470 17 142 28 426 145 443 184 2 4 8 7 13 7 10 0 94 61 154 110 16 14
74 70 127 124 l98 100 37 -35 c21 -18 40 -36 43 -39 20 -19 228 -209 324 -295
107 -95 281 -253 365 -330 36 -32 68 -63 69 -67 11 -26 -225 -267 -366 -376
-308 -237 -693 -403 -1092 -471 -219 -37 -312 -45 -555 -45 -189 0 -365 8
-405 19 -8 2 -40 7 -70 10 -30 3 -62 8 -70 10 -8 2 -31 7 -50 10 -147 25 -371
92 -527 156 -693 288 -1190 836 -1392 1534 -25 84 -48 182 -55 232 -4 24 -13
23 -26 -5 -8 -15 -22 -38 -31 -52 -9 -14 -30 -50 -46 -80 -17 -30 -87 -152
-155 -270 -69 -118 -178 -307 -243 -420 -65 -113 -126 -218 -135 -235 -10 -16
-42 -73 -72 -125 -30 -52 -66 -114 -81 -137 -15 -24 -27 -44 -27 -46 0 -2 -60
-107 -133 -233 -73 -126 -136 -236 -140 -244 -4 -8 -16 -28 -27 -45 -11 -16
-23 -37 -27 -45 -4 -8 -35 -64 -70 -123 -35 -60 -74 -127 -87 -150 -13 -23
-69 -120 -124 -216 -86 -149 -99 -178 -90 -195 12 -23 188 -330 329 -571 48
-82 96 -166 106 -185 11 -19 80 -138 153 -265 73 -126 141 -243 150 -260 10
-16 31 -54 49 -83 17 -29 31 -55 31 -57 0 -3 16 -29 35 -59 19 -30 35 -57 35
-60 0 -5 41 -76 90 -156 5 -8 37 -64 72 -125 34 -60 68 -119 74 -130 6 -11 42
-72 79 -135 37 -63 80 -138 95 -166 16 -28 92 -160 170 -293 77 -134 151 -261
164 -284 13 -23 74 -130 136 -237 175 -303 401 -695 465 -805 32 -55 90 -156
130 -225 40 -69 82 -142 94 -163 12 -21 86 -151 166 -288 80 -137 145 -252
145 -255 0 -3 8 -17 19 -32 16 -23 163 -276 228 -392 52 -93 219 -379 239
-412 13 -21 24 -40 24 -43 0 -3 11 -22 23 -43 13 -20 35 -57 49 -82 28 -49
359 -623 453 -785 32 -55 66 -113 75 -130 9 -16 68 -118 130 -225 62 -107 123
-213 135 -235 13 -22 46 -80 75 -130 29 -49 64 -110 78 -135 14 -25 44 -76 67
-115 22 -38 44 -77 48 -85 4 -8 71 -125 149 -260 l143 -245 4720 -3 4720 -2
33 57 c35 63 46 82 202 352 58 99 110 189 115 199 17 31 166 286 175 302 8 12
149 257 210 365 9 17 68 118 130 225 62 107 123 213 135 235 12 22 59 102 104
179 44 76 81 140 81 142 0 2 20 36 44 76 46 76 293 503 332 573 12 22 61 108
109 190 48 83 100 173 116 201 l29 51 -27 18 c-45 29 -132 125 -167 186 -114
192 -121 468 -17 674 42 84 158 206 243 254 168 95 381 119 577 65 63 -18 74
-15 93 23 8 15 64 114 125 218 161 279 304 526 323 560 10 17 32 55 50 85 18
30 45 78 60 105 15 28 59 104 98 170 84 144 102 176 188 325 36 63 74 129 84
146 31 53 447 775 850 1474 210 366 391 677 401 693 16 22 18 31 8 50 -28 53
-540 941 -569 987 -6 8 -22 38 -37 65 -15 28 -32 58 -38 67 -23 40 -482 834
-680 1178 -62 107 -136 236 -165 285 -29 50 -64 110 -77 135 -14 25 -40 70
-59 100 -34 57 -827 1430 -872 1510 -36 64 -166 290 -221 385 -26 44 -50 87
-54 95 -4 8 -16 29 -27 45 -10 17 -25 41 -33 55 -19 34 -35 61 -187 325 -73
127 -144 250 -158 275 -13 25 -28 50 -32 55 -4 6 -19 30 -32 55 -14 25 -71
123 -127 219 -55 95 -101 175 -101 177 0 3 -11 21 -23 42 -13 20 -35 57 -49
82 -14 25 -55 96 -92 159 -36 62 -66 115 -66 116 0 2 -17 32 -38 66 -22 35
-50 84 -64 109 -14 25 -74 128 -133 230 -59 102 -117 203 -130 225 -54 97
-478 831 -485 840 -4 6 -22 37 -40 70 -19 33 -52 92 -75 130 l-41 70 -4720 3
-4720 2 -17 -32z m3234 -2408 c1 -3 3 -381 4 -840 2 -459 3 -836 4 -838 0 -2
34 23 74 56 208 169 458 272 772 318 99 14 444 14 525 -1 270 -48 438 -108
610 -219 354 -228 550 -575 616 -1086 4 -30 9 -584 11 -1230 l4 -1175 -641 0
c-420 0 -640 3 -641 10 0 5 -1 449 -1 985 -1 536 -5 1010 -10 1054 -42 394
-246 593 -603 589 -201 -3 -358 -62 -487 -185 -94 -90 -156 -202 -194 -350
-15 -58 -19 -79 -30 -183 -4 -33 -7 -477 -7 -987 -1 -835 -2 -927 -16 -930
-13 -3 -1203 -2 -1253 1 -15 1 -16 178 -17 2503 0 1376 4 2505 9 2508 10 6
1270 7 1271 0z m5429 -1294 c58 -3 116 -8 130 -10 14 -2 43 -7 65 -10 259 -38
538 -137 748 -263 412 -247 710 -672 805 -1148 44 -218 53 -368 38 -605 -5
-69 -9 -135 -9 -147 -1 -13 -3 -24 -6 -24 -4 -1 -600 -2 -1326 -3 -870 -1
-1321 -4 -1322 -11 -12 -57 110 -264 209 -353 47 -43 160 -117 203 -133 16 -6
44 -17 60 -24 41 -18 188 -52 255 -60 62 -7 287 -6 340 0 170 22 323 75 460
158 50 30 184 129 188 139 9 22 19 13 263 -242 34 -36 143 -150 243 -253 100
-104 182 -192 184 -196 3 -8 -93 -101 -178 -172 -278 -234 -698 -385 -1151
-415 -181 -11 -478 -6 -579 10 -14 3 -45 7 -70 10 -25 3 -80 13 -123 21 -654
125 -1167 495 -1424 1026 -44 92 -123 304 -113 304 1 0 -3 12 -9 27 -11 31
-38 173 -49 263 -9 78 -9 370 0 460 12 106 53 289 88 390 17 50 34 99 37 110
11 38 116 230 165 305 178 266 408 469 703 620 205 105 438 180 641 205 27 4
60 9 74 11 14 3 93 7 175 11 83 3 152 7 153 9 2 1 9 1 15 -1 7 -2 59 -6 117
-9z m-5510 -7316 l0 -2220 -542 2 -542 3 1 157 1 157 -61 -61 c-143 -141 -370
-254 -568 -283 -24 -4 -46 -8 -49 -10 -10 -6 -177 -18 -260 -19 -187 -1 -366
25 -531 78 -69 22 -100 34 -209 84 -217 99 -437 292 -585 512 -161 241 -254
513 -281 820 -6 76 -6 310 0 365 2 17 7 59 10 95 4 36 9 72 11 80 2 8 7 31 10
50 17 104 72 269 128 390 32 68 132 235 154 258 7 8 26 32 42 55 45 64 206
215 299 280 188 132 452 238 656 263 21 3 59 9 84 13 25 5 122 8 216 6 158 -3
208 -7 276 -21 14 -3 39 -7 55 -10 53 -10 203 -63 267 -95 84 -42 173 -103
228 -155 24 -24 46 -41 49 -39 2 3 4 333 4 735 l0 730 569 0 568 0 0 -2220z
m2535 1066 c290 -26 639 -153 858 -313 83 -61 87 -64 178 -153 133 -131 218
-248 304 -419 45 -91 109 -265 120 -331 3 -19 10 -51 15 -70 5 -19 11 -60 15
-91 3 -31 8 -67 11 -80 6 -27 6 -326 0 -379 -2 -19 -4 -53 -5 -76 l-1 -40
-1172 1 c-645 0 -1176 -1 -1180 -3 -14 -6 41 -133 86 -201 135 -202 361 -309
671 -316 303 -6 514 63 729 239 l48 40 122 -125 c292 -302 471 -490 474 -497
1 -5 -26 -35 -60 -68 -327 -313 -751 -459 -1333 -458 -363 1 -658 62 -943 195
-99 46 -200 103 -252 141 -280 206 -442 403 -561 677 -34 80 -80 223 -93 291
-3 14 -7 34 -10 46 -2 12 -7 43 -10 70 -4 27 -9 65 -11 84 -7 48 -8 298 -2
335 3 17 8 57 12 90 9 84 42 225 77 325 211 600 791 1028 1473 1087 39 3 71 7
73 8 4 3 313 -4 367 -9z m2722 -66 c6 -14 91 -227 187 -475 97 -247 181 -459
186 -470 5 -11 54 -137 110 -280 55 -143 104 -269 109 -280 5 -11 46 -114 91
-230 45 -115 83 -211 85 -213 5 -5 20 30 140 323 59 143 115 279 126 302 10
24 19 47 19 51 0 5 6 22 14 38 8 16 71 166 141 334 69 168 130 314 135 325 5
11 61 148 126 305 64 157 119 287 121 289 4 5 1083 8 1083 3 0 -1 -8 -21 -19
-45 -10 -23 -87 -208 -171 -412 -84 -203 -158 -383 -165 -400 -8 -16 -35 -82
-60 -145 -25 -63 -52 -128 -60 -145 -7 -16 -77 -185 -154 -375 -78 -190 -148
-358 -156 -375 -8 -16 -45 -106 -83 -200 -38 -93 -106 -258 -150 -365 -45
-107 -135 -325 -201 -485 l-120 -290 -588 -2 -588 -3 -54 133 c-95 236 -143
351 -156 382 -7 17 -148 359 -313 760 -165 402 -312 759 -327 795 -80 195
-173 421 -221 539 -30 74 -61 149 -69 165 -8 17 -23 54 -33 81 -11 28 -48 118
-82 200 -34 83 -65 159 -70 170 -8 20 -4 20 574 20 l581 -1 12 -24z"/>
<path d="M13085 12963 c-299 -41 -528 -239 -609 -528 -10 -33 -19 -68 -22 -77
-5 -17 35 -18 745 -18 682 0 751 1 751 16 0 9 -14 57 -31 108 -81 244 -250
408 -491 476 -71 21 -266 34 -343 23z"/>
<path d="M6017 6734 c-1 -1 -30 -4 -63 -8 -96 -10 -185 -42 -282 -103 -41 -26
-145 -133 -178 -183 -80 -122 -114 -248 -119 -445 -5 -179 16 -302 75 -429
136 -292 451 -436 780 -356 207 51 386 224 454 440 34 108 37 128 41 295 3
119 0 168 -15 240 -11 50 -24 99 -29 110 -5 11 -15 35 -22 53 -57 152 -252
326 -399 357 -3 1 -30 6 -60 13 -47 10 -177 21 -183 16z"/>
<path d="M9998 6811 c-221 -50 -398 -212 -467 -429 -11 -32 -21 -70 -23 -83
l-3 -24 663 -1 663 -1 -7 31 c-52 243 -235 442 -463 503 -86 23 -270 25 -363
4z"/>
</g>
</svg>
