<svg xmlns="http://www.w3.org/2000/svg" viewBox="0 0 425.2 283.46">
    <defs>
        <style>
            .a{fill:#fff}.b{fill:#e0e0e0}.c{fill:#263238}.d{fill:#f8bf9d}.e{fill:#f69a6c}.f{fill:#445a64}.h{fill:#f59e0b}.i{fill:#f8bf9d}.j{fill:#6f4439}
        </style>
    </defs>
    <path class="a" d="m380.63 58.93 2.76-6a21.26 21.26 0 1 1 4 6.48Z"/>
    <path class="b" d="M380.52 59h.48l1.31.07 5 .29-.09.14a.09.09 0 0 1 0-.13.11.11 0 0 1 .12 0 21.29 21.29 0 0 0 8.73 5.63 20.54 20.54 0 0 0 6.65 1.14A21 21 0 0 0 421 34.08l-.7-1.09-.79-1a20.78 20.78 0 0 0-1.71-1.91 21.12 21.12 0 0 0-34.37 22.85V53c-.9 1.92-1.61 3.4-2.09 4.42l-.55 1.16c-.13.26-.21.4-.21.4l.16-.38.5-1.15 2-4.53V53a21.23 21.23 0 0 1-1.4-10.38 21.51 21.51 0 0 1 22.79-18.93 21.89 21.89 0 0 1 13.5 6.06 24.93 24.93 0 0 1 1.74 1.95l.81 1 .71 1.12a21.44 21.44 0 0 1-11 31.43 21.3 21.3 0 0 1-23.11-5.79l.17-.11a.09.09 0 0 1 0 .13s0 0-.05 0l-5.1-.41-1.36-.07Z"/>
    <path class="b" d="M398.21 45.3a2.51 2.51 0 1 1-2.51-2.51 2.5 2.5 0 0 1 2.51 2.51Zm7.91 0a2.51 2.51 0 1 1-2.51-2.51 2.5 2.5 0 0 1 2.51 2.51Z"/>
    <circle class="b" cx="411.52" cy="45.3" r="2.51"/>
    <path class="a" d="m213.35 256.4 3.66-7a22.2 22.2 0 0 1-1.17-15.14c3.29-11.89 16.21-20 30-18.85 17.32 1.48 29 16.19 24.65 31.09-3.49 11.9-16.68 19.87-30.49 18.42a29.41 29.41 0 0 1-17.58-8Z"/>
    <path class="b" d="M213.22 256.43h.61l1.74.08 6.68.33-.13.17a.11.11 0 0 1 0-.16.15.15 0 0 1 .16 0 28.76 28.76 0 0 0 11.49 6.66 30.67 30.67 0 0 0 8.81 1.33 31 31 0 0 0 10-1.48 29 29 0 0 0 9.46-5.14 25 25 0 0 0 6.83-8.7 22.23 22.23 0 0 0-2.09-22.27l-.92-1.28-1.05-1.2a29.72 29.72 0 0 0-2.26-2.23 28.37 28.37 0 0 0-5.31-3.57 31 31 0 0 0-12.19-3.4 31.61 31.61 0 0 0-11.91 1.57 28.75 28.75 0 0 0-9.43 5.27 23.92 23.92 0 0 0-8.43 14.86 22.17 22.17 0 0 0 1.71 12v.09l-2.77 5.18-.74 1.35c-.16.31-.26.47-.26.47s.06-.14.2-.44l.67-1.34 2.67-5.31v.09a22.28 22.28 0 0 1-1.86-12.16 24.08 24.08 0 0 1 8.48-15.15 29.1 29.1 0 0 1 9.59-5.4 31.41 31.41 0 0 1 24.6 1.82 29.32 29.32 0 0 1 5.43 3.65 27.73 27.73 0 0 1 2.31 2.29l1.07 1.22.94 1.3a22.66 22.66 0 0 1 2.11 22.76 25.38 25.38 0 0 1-7 8.86 29.35 29.35 0 0 1-9.67 5.21 32.24 32.24 0 0 1-19.08.06 28.6 28.6 0 0 1-11.54-6.84l.21-.14a.11.11 0 0 1-.06.15h-.07l-6.75-.49-1.71-.13a4.76 4.76 0 0 1-.54.06Z"/>
    <path class="b" d="M236.66 240.43a3.35 3.35 0 1 1-3.32-2.94 3.14 3.14 0 0 1 3.32 2.94Zm10.48 0a3.35 3.35 0 1 1-3.33-2.94 3.15 3.15 0 0 1 3.33 2.94Zm10.48 0a3.35 3.35 0 1 1-3.33-2.94 3.15 3.15 0 0 1 3.33 2.94Z"/>
    <path class="a" d="m70.83 63.55-7.18 2.19a24.15 24.15 0 1 1 2.45-8.31Z"/>
    <path class="b" d="M70.94 63.61s-.13-.14-.34-.4-.53-.67-.93-1.17l-3.55-4.49h.19a.11.11 0 0 1-.15.06.1.1 0 0 1-.07-.11 24.2 24.2 0 0 0-1.7-11.63 23.89 23.89 0 0 0-45 2.2L19 49.48l-.27 1.43a25.56 25.56 0 0 0-.33 2.89 24.11 24.11 0 0 0 4.9 15.67 24 24 0 0 0 40.36-3.72l.07-.06 5.32-1.55 1.39-.4.5-.13-.44.15-1.35.44-5.36 1.71.06-.06a23.9 23.9 0 0 1-7.74 9 24.38 24.38 0 0 1-33.21-5.08 24.72 24.72 0 0 1-4.58-10.18 25.61 25.61 0 0 1-.44-5.82 26.92 26.92 0 0 1 .34-3l.28-1.46.41-1.45a24.31 24.31 0 0 1 34.92-14.3 24.11 24.11 0 0 1 12.48 23.95h-.21a.12.12 0 0 1 .15-.07l3.48 4.63.88 1.17c.24.24.39.37.33.37Z"/>
    <path class="b" d="M37 54.77a2.85 2.85 0 1 1-2.85-2.84A2.84 2.84 0 0 1 37 54.77Z"/>
    <circle class="b" cx="43.07" cy="54.77" r="2.84"/>
    <circle class="b" cx="52.03" cy="54.77" r="2.84"/>
    <path class="a" d="m162.32 68.71 4.05-8.81a31.19 31.19 0 1 1 5.92 9.48Z"/>
    <path class="c" d="M162.18 68.75h.67l1.93.1 7.37.41-.13.21a.15.15 0 0 1 .06-.2.14.14 0 0 1 .17 0 31.35 31.35 0 0 0 12.69 8.32A30.95 30.95 0 0 0 216.13 71a30.71 30.71 0 0 0 5.23-38.71l-1-1.6-1.16-1.49a30.27 30.27 0 0 0-2.5-2.8 30.66 30.66 0 0 0-5.88-4.4 31.36 31.36 0 0 0-13.46-4.25 31 31 0 0 0-31 42.16V60l-3.06 6.47c-.34.72-.61 1.28-.81 1.69s-.29.58-.29.58a3.24 3.24 0 0 1 .22-.55c.18-.41.43-1 .74-1.68l3-6.64V60A31.09 31.09 0 0 1 164 44.8a31.46 31.46 0 0 1 33.4-27.71A31.9 31.9 0 0 1 217.16 26a34.55 34.55 0 0 1 2.55 2.85l1.18 1.53 1.05 1.62a31.42 31.42 0 0 1-16.08 46 31.08 31.08 0 0 1-11.2 1.83 30.73 30.73 0 0 1-9.88-1.76A31.18 31.18 0 0 1 172 69.52l.23-.16a.15.15 0 0 1-.06.2h-.08l-7.46-.6-1.88-.16a4.39 4.39 0 0 1-.57-.05Z"/>
    <path class="c" d="M188.07 48.75a3.67 3.67 0 1 1-3.67-3.67 3.67 3.67 0 0 1 3.67 3.67Zm11.58 0a3.68 3.68 0 1 1-3.65-3.67 3.67 3.67 0 0 1 3.65 3.67Zm11.57 0a3.67 3.67 0 1 1-3.67-3.67 3.67 3.67 0 0 1 3.67 3.67Z"/>
    <path class="b" d="M122.57 75.84a92 92 0 0 0-66.24 155.83l-10.13 29s19.71-7.67 31.67-12.41a92 92 0 1 0 44.7-172.42Z"/>
    <path class="c" d="M122.57 75.65h1.59c1.05 0 2.62 0 4.66.16a86.19 86.19 0 0 1 17.69 2.87 94.76 94.76 0 0 1 12.27 4.2 92.79 92.79 0 0 1 40.38 33.37 94.37 94.37 0 0 1 10 19.45 92.45 92.45 0 0 1-4.35 73.92 87.46 87.46 0 0 1-7.3 11.95 92.28 92.28 0 0 1-119.8 26.79h.28l-31.67 12.37-.65.26.23-.66L56 231.38l.07.32a92.19 92.19 0 0 1 10-136.91 89.4 89.4 0 0 1 11.34-7.49c.92-.55 1.86-1 2.78-1.5s1.83-1 2.74-1.37c1.83-.81 3.57-1.67 5.34-2.31A90.37 90.37 0 0 1 106.61 77l1.86-.33 1.77-.22c1.15-.14 2.21-.29 3.2-.38 2-.13 3.66-.29 5-.32l3.07-.06h1-1l-3.07.1c-1.35 0-3 .23-5 .38-1 .1-2 .26-3.19.4l-1.77.24-1.86.33a91.79 91.79 0 0 0-18.24 5.26c-1.75.65-3.49 1.52-5.31 2.32-.91.43-1.8.92-2.72 1.38s-1.85 1-2.77 1.5a89.29 89.29 0 0 0-11.24 7.5 91.72 91.72 0 0 0-9.78 136.16l.13.14-.06.18-10.12 29-.42-.41 31.66-12.36.15-.05.13.07a91.72 91.72 0 0 0 119-26.58 86.74 86.74 0 0 0 7.26-11.87 92 92 0 0 0 9.63-50.49 93.41 93.41 0 0 0-5.21-23 94.74 94.74 0 0 0-9.89-19.37 92.82 92.82 0 0 0-40.12-33.33 94.71 94.71 0 0 0-12.21-4.24 87.48 87.48 0 0 0-17.64-3c-2-.21-3.6-.16-4.65-.23Z"/>
    <path class="d" d="m112.64 48.23 1.22-.14a23.73 23.73 0 0 1 25.93 19.06c2.19 11.29 4.47 23.78 5.08 29.9 1.26 12.67-11.18 16-11.18 16l.74 5.14a15.47 15.47 0 0 1-13.21 17.5 15.47 15.47 0 0 1-17.4-13l-7.06-46.85c-2.6-13.01 2.8-25.37 15.88-27.61Z"/>
    <path class="e" d="M133.8 113.07a30.91 30.91 0 0 1-17.12-3s4.91 8.66 17.41 6.11Z"/>
    <path class="c" d="M137.69 79.13a1.82 1.82 0 0 1-1.54 2 1.73 1.73 0 0 1-2-1.42 1.82 1.82 0 0 1 1.53-2 1.75 1.75 0 0 1 2.01 1.42Zm.07-5.49c-.2.26-1.68-.6-3.62-.38s-3.26 1.36-3.5 1.14.06-.54.63-1.06a5 5 0 0 1 2.73-1.21 4.81 4.81 0 0 1 2.92.59c.69.4.94.8.84.92Zm-17.69 7.8a1.82 1.82 0 0 1-1.54 2 1.74 1.74 0 0 1-2-1.42A1.82 1.82 0 0 1 118 80a1.74 1.74 0 0 1 2.07 1.44Zm-1.38-5.3c-.2.26-1.68-.6-3.63-.38s-3.25 1.36-3.49 1.14.06-.54.63-1.06a5 5 0 0 1 2.8-1.21 4.8 4.8 0 0 1 2.92.6c.62.39.87.77.77.91Zm8.67 13.63a13 13 0 0 1 3.09-.92c.49-.11 1-.26 1-.61a2.48 2.48 0 0 0-.5-1.43l-1.89-3.62c-2.64-5.16-4.61-9.42-4.4-9.52s2.52 4 5.16 9.14l1.83 3.65a2.9 2.9 0 0 1 .48 1.92 1.28 1.28 0 0 1-.74.81 3.55 3.55 0 0 1-.83.22 13 13 0 0 1-3.2.36Zm-9.02-21.31c-.13.55-2.1.52-4.35 1.05s-4 1.36-4.39.92c-.16-.21.11-.74.8-1.34a7.75 7.75 0 0 1 6.65-1.5c.87.25 1.34.61 1.29.87Zm18.08-.37c-.3.48-1.69.17-3.3.33s-2.94.63-3.31.2c-.16-.2 0-.67.55-1.16a4.61 4.61 0 0 1 2.6-1 4.55 4.55 0 0 1 2.72.59c.62.37.86.81.74 1.04Z"/>
    <path class="c" d="M137.92 61.48s-4.22-7.55-8.25-9c-4.88-1.72-6.3 3.57-10.85 2.84s-9.2-2.4-13.32 1.52c-4.51 4.28-1.91 6.64-1.59 12.28 1.32 22.9-2.12 29.8-4.5 19.22-.26-1.16-3.63-1.73-4.67-6.64-1.34-6.37-2.47-14.15-1.54-18.88.78-4 2.68-6.89 6.28-10.26 5.7-5.32 14.22-6.38 20.08-6.44s17.78 5.38 18.36 15.36Z"/>
    <path class="d" d="M100.18 87.93A3.45 3.45 0 0 0 96.1 85c-2.34.49-4.81 2.12-4.11 7 1.24 8.62 9.64 5.59 9.62 5.34s-.88-5.81-1.43-9.41Z"/>
    <path class="e" d="M99.26 94.39s-.13.12-.37.28a1.48 1.48 0 0 1-1.12.18c-1-.2-1.93-1.53-2.2-3.08a5.07 5.07 0 0 1 .11-2.21 1.78 1.78 0 0 1 1-1.32.76.76 0 0 1 .94.29c.15.22.12.4.17.41s.16-.17 0-.52a1 1 0 0 0-.41-.49 1.16 1.16 0 0 0-.87-.1 2.14 2.14 0 0 0-1.37 1.56 5.22 5.22 0 0 0-.14 2.48c.31 1.73 1.44 3.23 2.73 3.41a1.63 1.63 0 0 0 1.27-.43c.28-.25.3-.45.26-.46Z"/>
    <path class="c" d="M139.25 52c-1.39-.94-3.23-1-4.61-1.92-2.51-1.72-2.84-5.91-5.73-6.86-1.71-.56-3.55.34-5.35.26-2.91-.15-4.15-2.27-8.55-2-5.72.29-7.32 4.65-7.32 4.65a6.6 6.6 0 0 0-6.55 1c-2.49 1.89-2.47 5.4-2.47 5.4s-.93-.41-3.55 1.91c-1.67 1.47-2.94 4.52-3.46 6.69-.77 3.22.79 6.5 2.31 9.45.82 1.6 1.82 3.35 3.55 3.83 2.11.59 4.31-1.15 5-3.23s1.87-4.19 2.75-6.19c1.52-3.48 3.1-6.74 1.55-8.83a9.81 9.81 0 0 1 6.1-.37c2 .55 3.83 1.73 5.84 2.33s4.52.41 5.78-1.27a4.25 4.25 0 0 0 6.58 1.06c1.69 2.47 5.42 3.46 7.9 1.77s2.72-6.03.23-7.68Z"/>
    <path class="f" d="M93 68.51a10.31 10.31 0 0 1 1.11 1.93 4.26 4.26 0 0 0 1.53 1.68 3.79 3.79 0 0 0 2.7.16 6.55 6.55 0 0 0 2.54-1.23 10.53 10.53 0 0 0 1.61-1.73 16.14 16.14 0 0 1 1.35-1.77 7.13 7.13 0 0 1-1 2 9.08 9.08 0 0 1-1.61 1.88 6.55 6.55 0 0 1-2.72 1.38 4.12 4.12 0 0 1-3.06-.26 4.32 4.32 0 0 1-1.61-1.92 8.67 8.67 0 0 1-.84-2.12Z"/>
    <path class="f" d="M93.68 75.19a7 7 0 0 0 1.77.86 5.08 5.08 0 0 0 2.08.06 5.87 5.87 0 0 0 2.33-1 11.85 11.85 0 0 0 3.08-3.61 8.84 8.84 0 0 1 1.09-1.7 6.94 6.94 0 0 1-.77 1.88 10.68 10.68 0 0 1-3.1 3.86 6 6 0 0 1-2.55 1.08 5 5 0 0 1-2.27-.18 2.72 2.72 0 0 1-1.66-1.25Z"/>
    <path class="e" d="M122 93.26a11.1 11.1 0 0 0-.33 2.94 3.32 3.32 0 0 0 1.09 2.51 3.63 3.63 0 0 0 2.88 1.15 4.07 4.07 0 0 0 3.81-3.67l.25-2.19c-2.07-.42-7.55-.61-7.7-.74Z"/>
    <path class="c" d="M127.66 99.12s-.25 0-.69.11a5.77 5.77 0 0 1-1.83.12 3.57 3.57 0 0 1-2.3-1.19 4.48 4.48 0 0 1-1-3 4.36 4.36 0 0 1 .37-1.78l-.26.15c2 .19 3.68.33 4.91.41a8.36 8.36 0 0 0 2 0 8.76 8.76 0 0 0-1.94-.36c-1.22-.18-2.93-.38-4.89-.6h-.18l-.08.17a4.75 4.75 0 0 0-.43 2 4.86 4.86 0 0 0 1.21 3.34 3.85 3.85 0 0 0 2.63 1.22 5 5 0 0 0 1.92-.29c.36-.14.57-.27.56-.3Z"/>
    <path class="f" d="M73.59 133.12c-.72 0-11 4.1-13.69 14.19s-10.08 47-10.08 47L42 205.18s2.54 19.8 16.94 16c0 0 9.62 1.68 12.68-8.07s9-38.82 9-38.82Z"/>
    <path class="f" d="m103.56 116.21-5.44 8.23-24.53 8.68 7 71.14L78 241.54c-.35 5 3.77 8.86 5.5 9H162c1.93-.05 4.55-4.78 4.87-7.41a17.69 17.69 0 0 0-.62-7l-4.06-14.27c.6 8.88-2.06-52.93-2.16-55.18l5.97-31.85-27.91-11.29-4.32-6.67-12.56 9.56Z"/>
    <path class="f" d="M166 134.83s5.62 4.93 6.56 8.69S193.65 191 193.65 191l10 2.7 2.68 5.56a15.48 15.48 0 0 1-4.37 19c-.37.27-.73.52-1.08.73-5.42 3.22-15.16 3.09-20.83-3.61-5.35-6.3-21.05-29.11-21.05-29.11v-27.91Z"/>
    <path class="c" d="M194.28 191c0 .14-1.22 0-3 .61a13.53 13.53 0 0 0-6 4.15 27.87 27.87 0 0 0-3.81 6.4 16.49 16.49 0 0 1-1.36 2.83 11.06 11.06 0 0 1 .88-3 22.49 22.49 0 0 1 3.73-6.68 12.6 12.6 0 0 1 6.41-4.17 5.61 5.61 0 0 1 3.15-.14Z"/>
    <path class="d" d="m54.66 197-13.48-11.24-7.75 8.7 1 4.26 16.81 15.88a11.74 11.74 0 0 0 5.29-6.47c1.68-4.78-1.87-11.13-1.87-11.13Z"/>
    <path class="d" d="M41 191.54c.16-.25 1.93-6.21-2.23-10.73s-8.17-6.39-10.55-7.81-7.1-6.39-8.15-5.44-1.63 2.49-.53 4.56 6.34 4.5 6.15 7.16a2 2 0 0 1-2.11 1.83s-9.2-.48-13-1.26-7.32-.45-7.28.89.69 2.16 3.83 2.8 8.33 1 8.51 1.8-.93 1.1-2.77.75-10.57-1.37-11.28-.45a2 2 0 0 0 .72 3l2 1s-1.39 1.51-.5 2.55 3.17 1 3.17 1l11.61 1s.58.77.2 1.21-9.37-1.29-9.56-.3-1 1.35 1.61 2.33a36.67 36.67 0 0 0 12 1.41c2.52-.38 12.83.36 12.83.36Z"/>
    <path class="c" d="M137.37 125.57a18.67 18.67 0 0 1-2.43 2.52c-1.53 1.51-3.63 3.61-5.86 6l-1.37 1.5-.3.32-.27-.34c-1.72-2.21-3.21-4.18-4.26-5.61a12.16 12.16 0 0 1-1.56-2.37 12 12 0 0 1 1.94 2.07c1.15 1.35 2.71 3.26 4.46 5.46h-.56l1.37-1.51a77 77 0 0 1 6.06-5.89 14.21 14.21 0 0 1 2.78-2.15ZM75.19 152a6.37 6.37 0 0 1 .4 1.51c.21 1 .47 2.4.75 4.17.57 3.53 1.17 8.44 1.67 13.87s.87 10.35 1.15 13.92c.12 1.65.22 3.06.3 4.22a6.15 6.15 0 0 1 0 1.55 5.68 5.68 0 0 1-.31-1.52c-.16-1-.34-2.43-.54-4.2-.41-3.56-.87-8.47-1.37-13.9s-1-10.33-1.45-13.87c-.21-1.64-.38-3-.52-4.19a6.31 6.31 0 0 1-.08-1.56Zm85.29-2.5a10.09 10.09 0 0 1 .27 1.9c.12 1.22.25 3 .37 5.19.24 4.39.37 10.46.38 17.16v22.36a9.26 9.26 0 0 1-.08 1.91 9.48 9.48 0 0 1-.2-1.9c-.09-1.23-.17-3-.25-5.2-.14-4.39-.2-10.46-.21-17.16s-.06-12.76-.17-17.15c-.05-2.08-.1-3.82-.13-5.2a9.15 9.15 0 0 1 .02-1.91Zm-96.36 62.91a28.92 28.92 0 0 1-.76-3.78 29.17 29.17 0 0 0-2.91-8.63 16.12 16.12 0 0 0-6.3-6.39 27.08 27.08 0 0 0-3.54-1.38 2.65 2.65 0 0 1 1 .05 10.12 10.12 0 0 1 2.73.86 15.39 15.39 0 0 1 6.71 6.5 25.71 25.71 0 0 1 2.78 8.94 15.08 15.08 0 0 1 .29 3.83Zm3.5-14.73c-.15.17-2.33-2.06-5.85-3.24s-6.59-.79-6.61-1 3.13-1 6.85.32 5.78 3.83 5.61 3.92Zm55.32 50.66a9 9 0 0 1-.08-1.22c0-.87 0-2-.08-3.5-.06-3.1-.15-7.48-.26-12.85-.25-10.91-.6-25.87-1-42.39s-.6-31.56-.59-42.42c0-5.43.06-9.82.13-12.86 0-1.46.08-2.63.1-3.49a9.75 9.75 0 0 1 .09-1.22 6.39 6.39 0 0 1 .06 1.22v3.49c0 3.11.06 7.48.11 12.86.12 10.85.42 25.84.8 42.4s.69 31.55.78 42.4v12.86c0 1.47 0 2.63-.06 3.5a6.8 6.8 0 0 1 0 1.22Z"/>
    <path class="c" d="M54 196.48a5.82 5.82 0 0 1 2 2.52 13.2 13.2 0 0 1 1.15 3.33 14.13 14.13 0 0 1 .06 4.32 11.74 11.74 0 0 1-1.27 4.14 8.18 8.18 0 0 1-2.36 2.66 4.58 4.58 0 0 1-3 1.09 12.39 12.39 0 0 0 2.71-1.51 8.3 8.3 0 0 0 2.08-2.56 12.07 12.07 0 0 0 1.13-3.92 14.42 14.42 0 0 0 0-4.1 13.68 13.68 0 0 0-.95-3.22c-.81-1.77-1.63-2.67-1.55-2.75Zm93.82-14.25a11.75 11.75 0 0 1-1.87 1.09c-1.22.66-3 1.58-5.23 2.69-4.45 2.21-10.67 5.13-17.65 8.09s-13.4 5.39-18.09 7c-2.34.83-4.25 1.47-5.57 1.88a12.13 12.13 0 0 1-2.08.58 11.55 11.55 0 0 1 2-.85l5.49-2.11c4.63-1.77 11-4.28 18-7.23s13.21-5.79 17.71-7.87l5.33-2.48a11.31 11.31 0 0 1 1.96-.79Z"/>
    <path class="e" d="M20.36 190.4c0 .2-3.63.39-8.11.18s-8.08-.75-8.06-1 3.64 0 8.1.21 8.07.4 8.07.61Zm8.26-.61c0 .08-.87-.07-1.89-.93a6 6 0 0 1-2.05-4.66 14.7 14.7 0 0 1 .5-2.75 7.88 7.88 0 0 0 .28-2.12 6.73 6.73 0 0 0-.46-1.91c.05-.09.8.5 1 1.87a6.9 6.9 0 0 1-.13 2.31 19.51 19.51 0 0 0-.43 2.63 6 6 0 0 0 1.67 4.24c.82.89 1.56 1.21 1.51 1.32Z"/>
    <path class="c" d="M120.43 126.89a26.64 26.64 0 0 1-1.64 4.22l-.91 2.1a25.63 25.63 0 0 1-1.15 2.43 1.56 1.56 0 0 1-1.54.74 3.84 3.84 0 0 1-1.44-.74l-2.57-1.76c-3.51-2.42-6.66-4.65-8.93-6.29a27.63 27.63 0 0 1-3.57-2.78 26.75 26.75 0 0 1 3.87 2.35c2.34 1.53 5.54 3.69 9.06 6.11l2.55 1.77a3.46 3.46 0 0 0 1.15.64.84.84 0 0 0 .86-.44c.83-1.51 1.52-3.13 2.14-4.35a27.55 27.55 0 0 1 2.12-4Z"/>
    <path class="d" d="m196.58 195.84 14.42-8.51 7 8.51-1.48 4.16-18.59 13.8a12.37 12.37 0 0 1-4.32-7.47c-.87-5.21 2.97-10.49 2.97-10.49Z"/>
    <path class="d" d="M210.76 192.05c-.13-.26-1.2-6.39 3.46-10.39s8.86-5.39 11.39-6.52 7.8-5.53 8.73-4.46 1.33 2.66 0 4.59-9 4.83-7.9 7.28c.44 1 2.84 1.18 2.84 1.18s9.19.6 13.05.27 7.33.4 7.13 1.73-.93 2.06-4.13 2.33-8.39.07-8.66.8.8 1.2 2.66 1.06 10.66-.13 11.26.87a2 2 0 0 1-1.07 2.86l-2.06.74s1.2 1.66.2 2.59-3.26.6-3.26.6l-11.66-.33s-.67.7-.33 1.18 9.46-.18 9.52.82.87 1.46-1.86 2.13a36.42 36.42 0 0 1-12.06 0c-2.46-.67-12.79-1.13-12.79-1.13Z"/>
    <path class="c" d="M200.63 215.31c0 .05-.35 0-.9-.27a9.69 9.69 0 0 1-2.2-1.32 11.81 11.81 0 0 1-3-15.37 9.85 9.85 0 0 1 1.54-2c.43-.43.7-.62.74-.59s-.88 1-1.82 2.88a12 12 0 0 0 2.84 14.72c1.61 1.34 2.86 1.83 2.8 1.95Z"/>
    <path class="e" d="M228.3 179.35c.09.09-.54.69-1.34 1.75a5.1 5.1 0 0 0-.92 2.05c-.17.83-.16 1.82-.3 2.89a7.07 7.07 0 0 1-2.78 4.69c-1.17.84-2.07 1-2.08.89s.75-.42 1.75-1.3a7.22 7.22 0 0 0 2.37-4.38c.14-1 .14-2 .37-2.94a6 6 0 0 1 2.93-3.65Zm2.08 13.43c0-.21 3.89-.05 8.64.35s8.6.88 8.59 1.08-3.89 0-8.65-.34-8.6-.87-8.58-1.09Z"/>
    <path class="c" d="M82.86 250.55s16.3 9.93 41.49 9.1 37.65-9.1 37.65-9.1Z"/>
    <path d="M359 176.64a94.56 94.56 0 1 0-24.61 19c11.41 4.56 36.2 14.16 36.2 14.16Z" style="fill:#fafafa"/>
    <path class="c" d="M359 176.64s.28.74.8 2.18 1.27 3.58 2.27 6.37c2 5.61 4.89 13.87 8.66 24.54l.11.3-.3-.12-36.22-14.09h.17a95.34 95.34 0 0 1-74.49 6.54 89.88 89.88 0 0 1-13.74-5.74 94.56 94.56 0 0 1-13.1-8.11 96.94 96.94 0 0 1-22.27-23.2A95.12 95.12 0 0 1 194.76 117a96.71 96.71 0 0 1 .78-17.88 95 95 0 0 1 164.61-50.7 95.54 95.54 0 0 1 14 20.2A92.08 92.08 0 0 1 382 89.86a95.62 95.62 0 0 1 1.15 38.74 93.85 93.85 0 0 1-19.86 43.18c-1.32 1.67-2.43 2.83-3.16 3.64s-1.12 1.22-1.12 1.22.35-.42 1.06-1.24 1.82-2 3.12-3.7a96.45 96.45 0 0 0 10.18-15.49 94 94 0 0 0 9.42-27.68A95.4 95.4 0 0 0 381.53 90a91.73 91.73 0 0 0-7.87-21.11A94.44 94.44 0 1 0 211.44 165a96.43 96.43 0 0 0 22.11 23 93.46 93.46 0 0 0 13 8.08 88.87 88.87 0 0 0 13.65 5.73 95.55 95.55 0 0 0 52.8 1.88 94.91 94.91 0 0 0 21.29-8.25l.08-.05h.09l36.17 14.21-.19.18c-3.71-10.71-6.59-19-8.54-24.64l-2.19-6.38c-.49-1.39-.71-2.12-.71-2.12Z"/>
    <path class="c" d="M345.2 47.9c2.1-2 3.64-4.78 3.38-7.65s-2.73-5.61-5.61-5.47a7.08 7.08 0 0 0-10-8.6c.38-1.35-.53-3-2.09-3.9-1.22-.7-6-.84-7.58 1.88l-7.05 22.92a15 15 0 0 0-1.09 21.26 7.4 7.4 0 0 0 7.22 11.75 7 7 0 1 0 13.51-3.19c3.3 1.34 7.23-1.16 8.42-4.52s.24-7.12-1.4-10.29a7.83 7.83 0 0 0 2.29-14.19Z"/>
    <path class="h" d="M327.3 28.19c3.15 1.26 3.64 3.92 4.16 6.14 1.12 4.79-1 11.61-3.88 15.58s-5.93 5.87-10.83 6.24l1.05-22.35Z"/>
    <path class="c" d="M328.25 41.13a7.76 7.76 0 0 0 0-9.94c1.54-1.68 1.22-4.45-.1-6.3s-3.38-3-5.37-4.1a10.44 10.44 0 0 0-11.61-8.43c-2.42-4.14-8.11-5.15-12.8-4.12a12.39 12.39 0 0 1-3.46.51 19.8 19.8 0 0 1-2.52-.53c-4.63-1-9.49 2-11.61 6.25a8.85 8.85 0 0 1-1.13 2 11.65 11.65 0 0 1-2.44 1.69 7.46 7.46 0 0 0-3.21 5.28c-.2 1.81.24 3.77-.63 5.37-.44.8-1.18 1.42-1.54 2.26-1 2.43 1.56 5.17.87 7.72-.14.53-.41 1-.6 1.51a4.58 4.58 0 0 0 .07 3.24 6.68 6.68 0 0 1 .85 2.38 6.86 6.86 0 0 1-.51 1.86c-.42 1.53 2.51 7.71 3.79 8.65l39.88 3.08a7.47 7.47 0 0 0 6.2-6 2.72 2.72 0 0 1 .48-1.44 3.14 3.14 0 0 1 1.13-.63c2.67-1.21 3.22-4.72 3.15-7.64a3.49 3.49 0 0 1 .1-1.21 4.31 4.31 0 0 1 1.01-1.46Z"/>
    <path class="i" d="M316.81 40.4c.6-7-3.28-15.47-10.05-19.4-4.28-2.48-7.73-2.73-10-3.16a16.24 16.24 0 0 0-9.55 1.33c-2.23.37-10.8 7.2-11.76 15.18-1.07 8.86-2 19.73-1.36 26.43 1.35 13.47 11.48 15.75 11.48 15.75l-2.46 22.07 18.58 17.48L311.07 91Z"/>
    <path class="c" d="M278.47 46.17A1.71 1.71 0 0 0 280 48a1.63 1.63 0 0 0 1.85-1.44 1.71 1.71 0 0 0-1.55-1.82 1.63 1.63 0 0 0-1.83 1.43Zm-.28-6.52c.2.23 1.55-.65 3.39-.54s3.14 1.11 3.35.89-.09-.51-.65-1a4.69 4.69 0 0 0-2.67-1 4.51 4.51 0 0 0-2.71.71c-.6.44-.81.83-.71.94Zm9.94 15.16a13 13 0 0 0-3-.71c-.47-.07-.91-.19-1-.52a2.46 2.46 0 0 1 .39-1.37l1.6-3.51c2.23-5 3.87-9.1 3.67-9.19s-2.17 3.89-4.4 8.88l-1.54 3.52a2.75 2.75 0 0 0-.35 1.84 1.19 1.19 0 0 0 .74.73 3.25 3.25 0 0 0 .79.16 11.8 11.8 0 0 0 3.1.17Z"/>
    <path class="j" d="M285.54 76.53a34.11 34.11 0 0 0 18.22-3.73s-5.3 9.13-18.59 7.12Z"/>
    <path class="c" d="M279.82 32.35c.29.47 1.71.25 3.35.48s3 .74 3.37.36c.17-.19 0-.64-.53-1.12A4.86 4.86 0 0 0 283.4 31a4.93 4.93 0 0 0-2.8.42c-.6.31-.9.7-.78.93Zm18.5 15.72a1.71 1.71 0 0 1-1.81 1.57 1.64 1.64 0 0 1-1.61-1.71 1.72 1.72 0 0 1 1.81-1.56 1.63 1.63 0 0 1 1.61 1.7Zm5.03-6.25c-.23.2-1.43-.88-3.27-1s-3.27.62-3.45.38.17-.49.79-.86a4.76 4.76 0 0 1 2.79-.58 4.59 4.59 0 0 1 2.58 1.11c.52.44.68.86.56.95Zm.5-7.22c-.41.39-1.78-.18-3.48-.36s-3.18 0-3.47-.49c-.12-.23.14-.62.81-1a5.61 5.61 0 0 1 5.6.69c.56.56.69.97.54 1.16Z"/>
    <path class="i" d="M313.93 52.93c.06-1 1.35-3.27 2.34-3.37 2.64-.26 7.35.22 7 6.88-.47 9.11-9.51 6.77-9.52 6.5s-.02-6.58.18-10.01Z"/>
    <path class="j" d="M316.46 59.75s.15.12.41.25a1.61 1.61 0 0 0 1.18.09c1-.31 1.87-1.79 2-3.43a5.36 5.36 0 0 0-.33-2.3 1.81 1.81 0 0 0-1.13-1.27.81.81 0 0 0-1 .38c-.13.25-.08.44-.13.45s-.19-.16-.1-.54a1.11 1.11 0 0 1 .39-.55 1.2 1.2 0 0 1 .89-.18 2.2 2.2 0 0 1 1.58 1.49 5.27 5.27 0 0 1 .42 2.57c-.15 1.83-1.18 3.5-2.51 3.81a1.76 1.76 0 0 1-1.44-.31c-.23-.21-.27-.45-.23-.46Z"/>
    <path class="c" d="M273.39 34.36c1.91-1 3.17-2.54 3.18-4.71 1.2.43 2.53-1.07 3.3-2.08s1.68-1.5 1.7-2.77a1.38 1.38 0 0 1 .13-.73 1.59 1.59 0 0 1 1-.53 6.1 6.1 0 0 0 4.26-4 12.87 12.87 0 0 0 6.18 1.39 4.93 4.93 0 0 0 8.36.13 4.4 4.4 0 0 0 2.83 2.35 13.2 13.2 0 0 0 3.76.42 5.23 5.23 0 0 0 3.09 6.11c.32.12.69.24.82.56s0 .68-.2 1a4.11 4.11 0 0 0 2.45 5.39 3.07 3.07 0 0 0 0 4.82c.32.22.73.48.66.86a.91.91 0 0 1-.22.38 6 6 0 0 0-1.61 2.92 2.2 2.2 0 0 0 1.66 2.54 2.93 2.93 0 0 0-1.27 1.93c-.06.79.69 1.64 1.45 1.4.32-.1 4.9-.73 5.11-1 2.78-3.35-.23-7.4-.23-11.75a28.32 28.32 0 0 0-3.22-12.52 20.65 20.65 0 0 0-3-4.57 27.38 27.38 0 0 0-4.79-4 25 25 0 0 0-7.09-3.9c-4.85-1.45-10.05 0-14.76 1.89a21 21 0 0 0-5.11 2.63 19.26 19.26 0 0 0-4.48 5.19 24 24 0 0 0-3.84 9.13"/>
    <path class="f" d="M271.79 31.07a3.77 3.77 0 0 1 .55-.95c.21-.29.5-.63.79-1.06a4.28 4.28 0 0 0 .61-1.67 13.49 13.49 0 0 0 .09-2.26 9.86 9.86 0 0 1 .24-2.69 7.49 7.49 0 0 1 1.36-2.8 7.27 7.27 0 0 1 1.2-1.22 10.47 10.47 0 0 1 1.5-1 5.42 5.42 0 0 0 1.45-1.12 7.1 7.1 0 0 0 1-1.66 11.64 11.64 0 0 1 2.42-3.36 12 12 0 0 1 3.68-2.51 11.2 11.2 0 0 1 2.24-.69A10.18 10.18 0 0 1 291.3 8c.41 0 .81.11 1.22.17s.8.2 1.2.3a6 6 0 0 0 2.43.14c.82-.11 1.64-.36 2.49-.51a16.18 16.18 0 0 1 2.61-.31 17.13 17.13 0 0 1 2.67.14 13.76 13.76 0 0 1 2.64.65 9 9 0 0 1 4.4 3.29l.31.47-.14-.06a10.58 10.58 0 0 1 11.76 8.54l-.07-.1a28.88 28.88 0 0 1 3.09 1.88 9.7 9.7 0 0 1 2.47 2.4 6.26 6.26 0 0 1 1 3.21 4.34 4.34 0 0 1-1.05 3v-.15a7.53 7.53 0 0 1 1.81 4.79 7.68 7.68 0 0 1-1.21 4.47 7.23 7.23 0 0 1-.66.86c-.24.27-.48.51-.68.78a1.92 1.92 0 0 0-.37.87 5 5 0 0 0 0 1 14.72 14.72 0 0 1-.31 3.44 7.26 7.26 0 0 1-1.05 2.58 4.56 4.56 0 0 1-1.5 1.39c-.49.28-.91.38-1.16.53a1.74 1.74 0 0 0-.34.26 1.09 1.09 0 0 1 .33-.29c.24-.16.66-.27 1.13-.56a4.38 4.38 0 0 0 1.46-1.39 7.1 7.1 0 0 0 1-2.54 14.67 14.67 0 0 0 .28-3.42 5.28 5.28 0 0 1 0-1 2.22 2.22 0 0 1 .4-.95 8.8 8.8 0 0 1 .69-.8 7.66 7.66 0 0 0 .63-.84 7.57 7.57 0 0 0 1.17-4.36 7.37 7.37 0 0 0-1.78-4.65l-.07-.08.07-.08a4.07 4.07 0 0 0 1-2.86 5.94 5.94 0 0 0-1-3.08 9.39 9.39 0 0 0-2.41-2.42 31.84 31.84 0 0 0-3.06-1.85h-.06v-.06a10.3 10.3 0 0 0-11.46-8.31h-.08l-.06-.08-.3-.45a8.68 8.68 0 0 0-4.27-3.19 13 13 0 0 0-2.58-.64 16.44 16.44 0 0 0-2.63-.13 15.44 15.44 0 0 0-2.56.3c-.84.15-1.67.4-2.51.51a6.2 6.2 0 0 1-1.29.06 8.45 8.45 0 0 1-1.24-.21l-1.19-.3c-.4-.06-.79-.14-1.19-.17a10.13 10.13 0 0 0-2.34.12 10.72 10.72 0 0 0-2.19.68 12 12 0 0 0-6 5.76 7.83 7.83 0 0 1-1 1.7 5.78 5.78 0 0 1-1.51 1.14 12.28 12.28 0 0 0-1.49 1 7.3 7.3 0 0 0-1.17 1.19 7.45 7.45 0 0 0-1.36 2.73 9.89 9.89 0 0 0-.25 2.65 11.77 11.77 0 0 1-.12 2.28 4.18 4.18 0 0 1-.64 1.69c-.3.44-.6.77-.82 1.06a5.17 5.17 0 0 0-.45.67c-.1.14-.14.21-.15.21Z"/>
    <path class="f" d="M307 10.11s-.23-.16-.66-.4a6.15 6.15 0 0 0-1.95-.7 5.77 5.77 0 0 0-3 .26 6 6 0 0 0-2.87 2.3 4.72 4.72 0 0 0-.51 1 1.11 1.11 0 0 0 0 1l.2.33-.36-.13a3.73 3.73 0 0 0-2.84.17 3.66 3.66 0 0 0-1.64 1.59 4 4 0 0 0-.45 1.47v.57-.14a4.26 4.26 0 0 1 0-.43 3.67 3.67 0 0 1 .39-1.55 3.72 3.72 0 0 1 1.69-1.72 4 4 0 0 1 3-.21l-.16.19a1.38 1.38 0 0 1 0-1.19 5.57 5.57 0 0 1 .54-1.06 6.08 6.08 0 0 1 3-2.39 5.85 5.85 0 0 1 3.14-.21 5.75 5.75 0 0 1 2 .8 4.58 4.58 0 0 1 .47.34c.01.05.01.1.01.11Zm14.13 11.33s-.1.13-.33.31a6 6 0 0 1-1.08.65 4.26 4.26 0 0 1-1.84.44 3.27 3.27 0 0 1-2.22-.82h.2l-.29.36-.33.34a5.47 5.47 0 0 1-2.36 1.28 5.77 5.77 0 0 1-2.18.15 5 5 0 0 1-1.42-.42 1.93 1.93 0 0 1-.46-.28 8.14 8.14 0 0 0 1.9.5 5.79 5.79 0 0 0 2.09-.19 5.53 5.53 0 0 0 2.24-1.23l.32-.33.27-.33.1-.12.1.1a3.09 3.09 0 0 0 2 .78 4.6 4.6 0 0 0 1.77-.36c1-.45 1.5-.87 1.52-.83Zm4.3 8.73v.17a1.68 1.68 0 0 1-.23.43 2.43 2.43 0 0 1-1.52.88 4.56 4.56 0 0 1-2.58-.44 12.51 12.51 0 0 1-1.41-.65 2.46 2.46 0 0 1-1.18-1.22.88.88 0 0 1-.05-.15l.21.08a10.74 10.74 0 0 1-2.8 1.46 4.85 4.85 0 0 1-2.57.11 3.43 3.43 0 0 1-1.53-.82 2.08 2.08 0 0 1-.31-.35c-.06-.09-.09-.14-.08-.15s.15.17.46.43a3.55 3.55 0 0 0 1.5.7 4.82 4.82 0 0 0 2.46-.16 10.88 10.88 0 0 0 2.68-1.49l.15-.1.06.18v.12a2.26 2.26 0 0 0 1.07 1.09c.45.25.92.45 1.36.65a4.54 4.54 0 0 0 2.46.48 2.46 2.46 0 0 0 1.47-.76 3.51 3.51 0 0 0 .38-.49Z"/>
    <path class="j" d="M296 57.2a25.7 25.7 0 0 0-6.1 2.2c-.16.93 1.37 3 2.24 3.36a3.3 3.3 0 0 0 2.94-.34 4 4 0 0 0 1.4-2.47 6.3 6.3 0 0 0-.48-2.75Z"/>
    <path class="c" d="M292.38 62.88a6.08 6.08 0 0 0 2-.39 3.41 3.41 0 0 0 1.93-4 3.45 3.45 0 0 0-.52-1.13l.3.09a38.61 38.61 0 0 1-5.77 1.7 38 38 0 0 1 5.6-2.21l.18-.06.12.16a3.89 3.89 0 0 1 .2 4.28 3.74 3.74 0 0 1-1.9 1.54 2.61 2.61 0 0 1-2.14.02Z"/>
    <circle class="f" cx="315.66" cy="63.48" r="2.92"/>
    <path class="i" d="M210.31 125.42s-6.48-7.76-8.13-10.51a16.07 16.07 0 0 0-5.18-5.61c-2.46-1.83-9.23-6.18-11.6-5.79-1.81.29-8.67-2.21-11.76-3a1.42 1.42 0 0 0-1.48.58c-.54 1.72 2.38 4.06 4.56 4.93l2.85 1.14 1.58 6.8s-1.8 7.86-.07 9.52 1.49 1.28 3.9 2 11.36.81 11.5 1 5.55 8 5.55 8Z"/>
    <path class="i" d="M167.7 101.11s1.87-.82 3.49 1.69 2.57 4.45 2.57 4.45a16.4 16.4 0 0 0 1.78.31l2.49 3.19-.62 2.12s-4.86-.68-5.83-2a51.82 51.82 0 0 1-4.13-8.46c-.17-1.06.25-1.3.25-1.3Z"/>
    <path class="i" d="m184.52 119.58-1-1.72 1.59-1.83s3.4 1.17 4.63-.41.85-1.71.85-1.71l-4.47-1.36 2.7-.64s3.68 1.3 4.41-.86l-.19-1.28a33 33 0 0 0-5.06-1 62.1 62.1 0 0 0-6.62.62l4.58-1.4a7.64 7.64 0 0 0 2.95-.22 1.36 1.36 0 0 0 .7-2 1.34 1.34 0 0 0-.66-.56 12 12 0 0 0-3.67-.94c-1.63 0-7.05.89-8.39 2.12s-1.53 1.8-1.08 3.22a21.64 21.64 0 0 0 2.11 3.85 6.47 6.47 0 0 0 .88 3.11s-.8 3.26 2.34 7"/>
    <path class="j" d="M181.08 123.52a2.52 2.52 0 0 1-.35-.37 9.42 9.42 0 0 1-.88-1.21 8.93 8.93 0 0 1-1-2.18 7.16 7.16 0 0 1-.27-3.24v.14a6.21 6.21 0 0 1-.94-3.2v.1c-.48-.71-1-1.47-1.41-2.29a6.58 6.58 0 0 1-1-2.83 2.27 2.27 0 0 1 .65-1.52 4.91 4.91 0 0 1 1.25-1.09 12.59 12.59 0 0 1 3.19-1.12 29.18 29.18 0 0 1 3.47-.63 8.28 8.28 0 0 1 1.87 0 10.42 10.42 0 0 1 1.84.41l.91.31a3.52 3.52 0 0 1 .93.44 1.65 1.65 0 0 1 .38 2.08 1.61 1.61 0 0 1-.89.73 5 5 0 0 1-1 .22 8.7 8.7 0 0 1-2 0h.17l-1.87.57-2.72.83-.12-.55c2.07-.27 4.09-.53 6.09-.62a12.81 12.81 0 0 1 2.95.38c.94.21 1.86.44 2.75.69h.16v.16c.06.44.12.86.19 1.29v.12a2 2 0 0 1-.93 1.09 3 3 0 0 1-1.32.31 7.25 7.25 0 0 1-2.48-.41h.14l-2.71.63v-.43l3.33 1 .78.25.19.06h.17c.07 0 .07 0 .09.07.18.32 0 .42 0 .57a6.27 6.27 0 0 1-.84 1.31 2.32 2.32 0 0 1-1.26.8 4.74 4.74 0 0 1-1.33.12 9.14 9.14 0 0 1-2.26-.45h.14l-1.63 1.8v-.1l.75 1.32a2.27 2.27 0 0 1 .22.44s-.11-.12-.29-.4-.48-.73-.82-1.28v-.05L185 116l.05-.06h.08a8.84 8.84 0 0 0 2.19.38 2.69 2.69 0 0 0 2.29-.83 5.64 5.64 0 0 0 .77-1.23.88.88 0 0 0 0-.15s0 0 .1-.1a1.46 1.46 0 0 0-.07.13h-.1l-.19-.06-.78-.23-3.33-1-.8-.24.81-.19 2.7-.66h.13a7.1 7.1 0 0 0 2.3.36A1.79 1.79 0 0 0 193 111v.12c-.06-.42-.13-.85-.19-1.28l.18.21c-.88-.24-1.79-.47-2.72-.67a12.3 12.3 0 0 0-2.82-.35c-1.95.08-4 .35-6 .63l-.12-.55 2.71-.83 1.87-.57h.12a8.05 8.05 0 0 0 1.9 0 4.52 4.52 0 0 0 .9-.2 1 1 0 0 0 .58-.47 1.1 1.1 0 0 0-.25-1.38 2.91 2.91 0 0 0-.77-.36c-.29-.11-.58-.21-.88-.3a10 10 0 0 0-1.75-.4 7.26 7.26 0 0 0-1.74 0 28.18 28.18 0 0 0-3.41.6 13 13 0 0 0-3.07 1 4.59 4.59 0 0 0-1.13 1 1.86 1.86 0 0 0-.56 1.23 6.33 6.33 0 0 0 .89 2.62c.44.81.91 1.57 1.37 2.27v.06a5.85 5.85 0 0 0 .82 3v.14a7 7 0 0 0 .19 3.09 9.28 9.28 0 0 0 .91 2.16c.62 1.23 1.09 1.72 1.05 1.75Zm4.74-3.13a5.35 5.35 0 0 1 1.6-1.23 17 17 0 0 1 9.34-2.35 5.38 5.38 0 0 1 2 .32 35 35 0 0 0-6.69.72 34.42 34.42 0 0 0-6.25 2.54Z"/>
    <path class="j" d="M186.47 112.54c0 .1-.55-.07-1.39-.11a4.91 4.91 0 0 0-3 1 14.87 14.87 0 0 0-2.4 2.28c-.58.64-1 1-1 1s.2-.52.71-1.23a10.85 10.85 0 0 1 2.39-2.49 4.75 4.75 0 0 1 3.37-.9 2.51 2.51 0 0 1 1.32.45Zm-4.95-3.23a10 10 0 0 0-2.17 1.62c-1 1.11-1.47 2.29-1.63 2.23a3.83 3.83 0 0 1 1.22-2.61 4.36 4.36 0 0 1 1.71-1.18c.52-.17.86-.13.87-.06Z"/>
    <path class="h" d="M333.36 97.63s8.88 2.36 9.14 14.05c.24 10.34 5.06 39.4 5.19 49.89s-1.06 18.43-14.35 20.63c-10.73 1.8-22.11-22.32-22.11-22.32l10.92-9.46-4.55-19s-3-6.5 4.15-20.18 11.61-13.61 11.61-13.61Z"/>
    <path class="h" d="m284 79.69-5.13 6.77L262.53 90s-12 25.56-11.45 37.31a119.18 119.18 0 0 0 1.83 17.59l-.11 13.45s-5.07 11.19-2.81 16 8.59 9.32 8.59 9.32l59.24.75s4.22 2.42 6.44-3.92-1.26-52.58-1.26-52.58l11.5-29.76L315.81 88l-3.41-9-22.4 5.66Z"/>
    <path class="i" d="m326.47 153.24-2.47-3.62-12.77 5.53 1.2 4.13s4.35 4.9 8.65 3.27 5.06-6.48 5.06-6.48Z"/>
    <path class="i" d="M315.42 143.56s1.78-2.34 3.12-2.86a18.9 18.9 0 0 1 1.92-.67 2 2 0 0 1 1.85-2.66 3.57 3.57 0 0 0 1.78.81 1.41 1.41 0 0 1 1.63 1.18c.22 1 .82 3.63 0 4.89s-2.29 2.52-1.63 5.93c0 0-.89 3.77-2.81 4.74a6.41 6.41 0 0 1-2.89.89s-1.78 2.14-3.26 1.85-2.15-.37-2.15-.37-1.18 1.83-3.77.39a2.9 2.9 0 0 1-2.89.2c-.69-.38-4.08-3.78-4.22-6.37s-.05-4.37.59-5.33c.95-1.43 2.33-.14 2.33-.14s.34-2.45 1.3-3.42 1.7-.81 1.7-.81-.29-3 2-3.19 2.07 2.52 2.15 4l.07 1.48s.92-2.17 3.18-.54Z"/>
    <path class="j" d="M315.42 143.56a8.79 8.79 0 0 0-.88-.41 1.74 1.74 0 0 0-1.12 0 2 2 0 0 0-1.07 1l-.2.42v-.46c0-.63-.1-1.34-.12-2.12a6.15 6.15 0 0 0-.43-2.43 1.63 1.63 0 0 0-2.31-.51 2.88 2.88 0 0 0-1 2.74v.24H308a2.4 2.4 0 0 0-1.91 1.34 8.71 8.71 0 0 0-.81 2.72l-.07.43-.33-.29c-.46-.4-1.16-.66-1.62-.28a2.83 2.83 0 0 0-.82 1.79 13.71 13.71 0 0 0-.12 2.24 10.6 10.6 0 0 0 .2 2.27 11 11 0 0 0 2.49 4c.28.3.57.6.87.88.15.14.31.27.46.39a1.79 1.79 0 0 0 .5.24 2.62 2.62 0 0 0 2.22-.33l.16-.1.14.08a3.16 3.16 0 0 0 2.31.43 2 2 0 0 0 1.1-.74l.11-.15h.15l1.54.26c.25 0 .54.11.74.12a1.41 1.41 0 0 0 .64-.07 5.78 5.78 0 0 0 2.25-1.69l.08-.1h.15a6 6 0 0 0 2-.53 3.65 3.65 0 0 0 1.69-1.16 10.55 10.55 0 0 0 1.7-3.72v.11a6.25 6.25 0 0 1 .57-4.47c.36-.65.84-1.19 1.17-1.74a3.74 3.74 0 0 0 .33-1.83 11.51 11.51 0 0 0-.21-1.87 3.6 3.6 0 0 0-.51-1.6 1.17 1.17 0 0 0-.66-.31 7.49 7.49 0 0 1-.85-.09 4 4 0 0 1-1.48-.82l.13.05a1.87 1.87 0 0 0-1.56.83 2.44 2.44 0 0 0-.17 1.61v.14h-.13l-1.35.45a4.11 4.11 0 0 0-1.12.48 9.73 9.73 0 0 0-1.49 1.27c-.37.38-.64.69-.83.89a1.88 1.88 0 0 1-.29.3 1.27 1.27 0 0 1 .23-.35c.17-.22.42-.54.78-1a10.1 10.1 0 0 1 1.47-1.35 4.31 4.31 0 0 1 1.17-.53l1.36-.49-.11.18a2.73 2.73 0 0 1 .16-1.85 2.21 2.21 0 0 1 1.82-1h.13a3.76 3.76 0 0 0 1.34.71c.42.09 1.21 0 1.71.5a1.89 1.89 0 0 1 .45.89c.07.3.14.6.2.91a13.37 13.37 0 0 1 .23 1.94 4.13 4.13 0 0 1-.37 2.07c-.38.63-.83 1.14-1.16 1.75a5.81 5.81 0 0 0-.49 4.13v.11a10.76 10.76 0 0 1-1.79 3.94 4.33 4.33 0 0 1-.85.8 7.21 7.21 0 0 1-1 .52 6.38 6.38 0 0 1-2.29.58l.23-.1a6.21 6.21 0 0 1-2.5 1.87 2.09 2.09 0 0 1-.87.1c-.3 0-.51-.09-.77-.13l-1.51-.26.27-.12a2.63 2.63 0 0 1-1.42 1 3.73 3.73 0 0 1-2.73-.48h.3a3.19 3.19 0 0 1-2.73.41 2.61 2.61 0 0 1-.63-.21c-.18-.14-.34-.29-.51-.44s-.61-.6-.9-.92a11.53 11.53 0 0 1-2.6-4.26 11.2 11.2 0 0 1-.2-2.41 12.8 12.8 0 0 1 .14-2.32 3.23 3.23 0 0 1 1-2.1 1.46 1.46 0 0 1 1.22-.24 2.43 2.43 0 0 1 1 .56l-.4.14a9.51 9.51 0 0 1 .89-2.87 3.19 3.19 0 0 1 1-1.1 2.11 2.11 0 0 1 1.4-.44l-.25.23a4.68 4.68 0 0 1 .21-1.76 2.35 2.35 0 0 1 1.06-1.35 2.43 2.43 0 0 1 1.6-.24 1.63 1.63 0 0 1 1.2.93 6.39 6.39 0 0 1 .41 2.57c0 .77 0 1.49.07 2.12h-.22a2.05 2.05 0 0 1 1.23-1.12 1.81 1.81 0 0 1 1.21.1 2.75 2.75 0 0 1 .86.48Z"/>
    <path class="j" d="M323.23 142.93c0 .07-.28.12-.69 0a2.73 2.73 0 0 1-1.4-.86 2.82 2.82 0 0 1-.66-1.5c0-.43 0-.68.13-.68s.22 1 .95 1.81 1.69 1.07 1.67 1.23Zm-3.33 7.49c-.16.06-.83-1.68-2-3.58s-2.55-3.2-2.44-3.32a8 8 0 0 1 2.91 3 8.9 8.9 0 0 1 1.53 3.9Zm-7.59-6.9c.09 0-.05.71.18 1.78a14.52 14.52 0 0 0 1.78 3.95 15.55 15.55 0 0 1 1.07 2.23 18.7 18.7 0 0 1 .5 1.94 2.59 2.59 0 0 0 1 1.42s-.21 0-.5-.16a2.26 2.26 0 0 1-.83-1.14c-.21-.56-.32-1.21-.6-1.88a17.92 17.92 0 0 0-1.08-2.14 11.62 11.62 0 0 1-1.67-4.15 2.68 2.68 0 0 1 .15-1.85Zm-1.23 10.11a5 5 0 0 1-1.49-1.22 6.21 6.21 0 0 1-1.2-1.77 8.31 8.31 0 0 1-.51-2.54 20.06 20.06 0 0 1 .2-6.53c.17 0 0 2.92.36 6.47a8.94 8.94 0 0 0 .43 2.41 6.28 6.28 0 0 0 1 1.7 10 10 0 0 1 1.21 1.48Zm-4.08.69c-.07 0-.32-.43-.9-1a10.36 10.36 0 0 1-1-1.19 3.9 3.9 0 0 1-.64-1.86 13.9 13.9 0 0 1 .35-3.4 8 8 0 0 1 .21-1.38c.08 0 .22.53.18 1.41a26.2 26.2 0 0 0-.18 3.32 5.21 5.21 0 0 0 1.38 2.85c.49.66.6 1.23.6 1.25Z"/>
    <path class="c" d="M342.12 162.8a10.14 10.14 0 0 0-1.69-2.19A10 10 0 0 0 338 159a25.46 25.46 0 0 0-3.48-1.27 34.67 34.67 0 0 1-3.57-1.2 11.78 11.78 0 0 1-2.71-1.53 7 7 0 0 1-1.45-1.52c-.28-.41-.38-.67-.35-.69a13.24 13.24 0 0 0 2 1.89 12.62 12.62 0 0 0 2.66 1.38c1.06.41 2.27.75 3.54 1.14a21.68 21.68 0 0 1 3.55 1.34 9.55 9.55 0 0 1 2.53 1.83 6 6 0 0 1 1.2 1.73 1.54 1.54 0 0 1 .2.7Z"/>
    <path class="h" d="m206.45 118 4.16 4a28.84 28.84 0 0 1 5.27 1.12c3.43 1 10.64 10.1 10.64 10.1l18.38-27.14s9-15.2 17.63-16.14l-6.84 42.83S237.42 157 228.61 160s-27.82-20.67-28.61-25l-5.6-6.74Z"/>
    <path class="c" d="M330.62 182.66a4.87 4.87 0 0 1-1.15-.4 20.43 20.43 0 0 1-2.9-1.56 34.22 34.22 0 0 1-7.89-7.46c-1.34-1.65-2.52-3.29-3.57-4.79a26.14 26.14 0 0 1-2.6-4.16 5 5 0 0 1-.34-3.3 3 3 0 0 1 .36-.84c.12-.17.2-.25.21-.24a9.74 9.74 0 0 0-.36 1.13 5.09 5.09 0 0 0 .49 3.09 28.78 28.78 0 0 0 2.66 4c1.07 1.48 2.26 3.1 3.58 4.74a38 38 0 0 0 7.68 7.48c2.26 1.59 3.87 2.21 3.83 2.31Zm-10.73-59.99c.16 0 .09 3.35.27 7.46s.5 7.43.34 7.45a8.33 8.33 0 0 1-.44-2.16c-.19-1.34-.38-3.2-.46-5.27s-.06-3.94 0-5.29a7.75 7.75 0 0 1 .29-2.19Zm13.35-23.78a18.85 18.85 0 0 0-3.21.86 14.41 14.41 0 0 0-5.94 5.17 25.15 25.15 0 0 0-3.46 7.21c-.59 2-.73 3.26-.83 3.24a2.76 2.76 0 0 1 0-.91 6.94 6.94 0 0 1 .14-1 13.93 13.93 0 0 1 .29-1.39 22.54 22.54 0 0 1 3.39-7.43 17.36 17.36 0 0 1 3.05-3.34 11.37 11.37 0 0 1 3.2-1.87c.25-.09.48-.19.71-.25l.66-.14a4.49 4.49 0 0 1 1.07-.13 3.07 3.07 0 0 1 .93-.02Zm-73.09 0a1.51 1.51 0 0 1-.17.47l-.61 1.3c-.28.55-.61 1.23-.95 2s-.78 1.71-1.16 2.75a73.26 73.26 0 0 0-2.5 7.35 71 71 0 0 0-2.64 18.78 72.9 72.9 0 0 0 .38 7.76c.08 1.1.25 2.09.36 3s.23 1.62.34 2.23.17 1 .23 1.41a1.52 1.52 0 0 1 0 .51 1.71 1.71 0 0 1-.15-.48l-.33-1.39c-.15-.61-.31-1.35-.44-2.23s-.34-1.86-.44-3a63.9 63.9 0 0 1-.5-7.8 72.89 72.89 0 0 1 .65-9.56 73.71 73.71 0 0 1 2-9.36 67.71 67.71 0 0 1 2.62-7.36c.41-1 .87-1.94 1.25-2.74s.73-1.47 1-2 .51-.91.71-1.25a2.07 2.07 0 0 1 .35-.39ZM315.81 88s-.14.1-.43.24l-1.28.57c-1.13.48-2.77 1.14-4.84 1.89a140.34 140.34 0 0 1-16.62 4.84l-.27.06-.07-.27c-.12-.52-.26-1.07-.41-1.63-.8-2.9-1.76-5.64-2.36-8.28l.46.1c-2.34 2.85-4.45 5.38-6.33 7.35l-.15.15-.14-.15a22.07 22.07 0 0 1-1.95-2.63l-1.35-2c-.74-1.12-1.24-1.67-1.21-1.7a1.81 1.81 0 0 1 .4.37 12.88 12.88 0 0 1 1 1.2c.41.54.88 1.21 1.43 2a23.11 23.11 0 0 0 2 2.53h-.28c1.82-2 3.9-4.54 6.21-7.4l.34-.42.12.53c.61 2.59 1.58 5.33 2.39 8.25.15.56.29 1.13.42 1.65l-.34-.21a165.74 165.74 0 0 0 16.63-4.65c2.07-.7 3.74-1.3 4.88-1.72a14.86 14.86 0 0 1 1.75-.67Z"/>
    <path class="c" d="M283.05 186.77a.81.81 0 0 1-.24-.12c-.15-.09-.39-.21-.68-.41a8 8 0 0 1-2.08-2.2 13.06 13.06 0 0 1-1.73-4.48 31.63 31.63 0 0 1-.59-6.33c0-9.38-.13-22.36.88-36.67.51-7.15 1.32-13.94 2.38-20.07a139.45 139.45 0 0 1 3.72-16.07A98.73 98.73 0 0 1 290 86.19a.72.72 0 0 1-.07.26l-.27.74c-.27.68-.64 1.62-1.1 2.81s-1 2.74-1.62 4.5-1.22 3.79-1.89 6a145.87 145.87 0 0 0-3.6 16c-1 6.11-1.82 12.88-2.33 20-1 14.27-.94 27.25-1 36.63a32.17 32.17 0 0 0 .49 6.27 13.25 13.25 0 0 0 1.61 4.42 9.09 9.09 0 0 0 2.83 2.95Z"/>
    <path class="c" d="M299.73 166.59a9.51 9.51 0 0 1-1.53-.15c-1-.13-2.41-.36-4.15-.7a99.63 99.63 0 0 1-13.38-3.66 98.91 98.91 0 0 1-12.74-5.5c-1.57-.82-2.82-1.52-3.67-2a8.38 8.38 0 0 1-1.29-.84 9.08 9.08 0 0 1 1.39.65c.88.46 2.16 1.11 3.75 1.88a116.87 116.87 0 0 0 26 9.12c1.73.39 3.13.68 4.1.87a7.74 7.74 0 0 1 1.52.33Z"/>
    <path d="m328.88 155-.14-.09Zm15.97 4.82a5.76 5.76 0 0 0-3.68-4 13.49 13.49 0 0 0-5.62-.65 44.7 44.7 0 0 1-6.65-.15c1.87 1.49 5.15 2.13 7.71 3.21a12.34 12.34 0 0 1 4 2.33 15.87 15.87 0 0 0 1.36 1.36 2 2 0 0 0 1.8.42 2.14 2.14 0 0 0 1.08-2.52Zm-89.94-48.43a22.51 22.51 0 0 0-6 12.76 22.77 22.77 0 0 0 3.15 13.79l.05-.17a57.05 57.05 0 0 1 2.8-26.38Z" style="opacity:.3"/>
    <path class="c" d="m251.61 199.38 7-15.7 64.65-1 9 15.66s-36.84 16.9-80.65 1.04Z"/>
</svg>
