<svg xmlns="http://www.w3.org/2000/svg" viewBox="0 0 700 500">
    <path fill="#e6e6e6" d="M700 495.1a.79.79 0 0 1-.8.8H0v-1.5h699.2a.67.67 0 0 1 .8.7Zm-25.21-70.77H25.21A25 25 0 0 1 0 399.59v-76.76h700v76.76a25 25 0 0 1-25.21 24.74Z"/>
    <path fill="#3f3d56" d="M682.77.2H17.37C7.86.2 0 6.54 0 14.46v326.59h700V14.35C700.14 6.54 692.28.2 682.77.2Zm.55 322.86H16.27V15h666.91v308Z"/>
    <path fill="#e6e6e6" d="M282 397.06h136v97.21H282Z"/>
    <path fill="#e6e6e6" d="M273.78 482.05h152.44v12.33H273.78Z"/>
    <circle cx="350" cy="7.37" r="3.85" fill="#fff"/>
    <path fill="#ffb6b6" d="m39.24 194.28-5.89 20.59 23.54 1.47L55.42 192Zm98 84.19c5.54 1.92 11.09.56 12.33-2.94s-2.38-8-7.92-10a14.46 14.46 0 0 0-6.9-.68l-23.88-7.81-3.4 11.2 23.88 6.45a13.79 13.79 0 0 0 5.89 3.74Z"/>
    <path fill="#4168bb" d="M58.25 210.34S43.42 228.11 52 235.47 98.76 270 98.76 270l14.83 2.26 3.84-14.37L83.82 233l-25.57-22.66Z"/>
    <path fill="#ffb6b6" d="m97.4 399.44 8.26 30.44 13-2.38-2.94-31.45-18.32 3.39Z"/>
    <path fill="#2f2e41" d="m107.47 428-4.86 1-3.85 13s6.22 2.38 6.22 7.24 2.38 8.26 12.11 7.7 10.64 0 10.64-3.85-7.24-24.1-7.24-24.1.45-8.26-5.32-7.7c-5.77.33-7.7 6.71-7.7 6.71Z"/>
    <path fill="#ffb6b6" d="m53.27 399 .56 31.46 13.25.79 4.86-31.12Z"/>
    <path fill="#2f2e41" d="m56.1 429.09-4.87-.23-6.9 11.66s5.54 3.85 4.3 8.6.34 8.6 9.84 10.41 10.3 2.6 11.21-1.13-1.13-25.12-1.13-25.12 2.49-7.81-3.29-8.83-9.16 4.64-9.16 4.64Z"/>
    <path fill="#4168bb" d="m58.7 210.68-26-1.92-5.8 7.24s-2.94 48.78-1 53.64.46 32.37.46 32.37l65.74-4.64-14.59-35 .45-20.26-13-24.67-6.23-6.79Z"/>
    <path fill="#2f2e41" d="M29.28 291.82s-10.64 15.51-6.79 23.65 30.1 55.91 30.1 55.91l-3.39 44.47 23.19-1.92 3.85-47.76L60.17 327l2.94-4.3 24.11 29.42 8.71 51.15 23.2-2.94-12.56-74.81-14.71-28.83Z"/>
    <circle cx="27.02" cy="172.21" r="8.94" fill="#2f2e41"/>
    <circle cx="47.72" cy="185.9" r="19.46" fill="#ffb6b6"/>
    <path fill="#2f2e41" d="M41.5 207.18c-2 1.13-7.92-3-10-8.38-1.36-3.51-4.64-2.94-6.67-7.24-1.25-2.49 2.37-5 1.81-7.13a12.34 12.34 0 0 1 .45-7.92c1.47-3.74 3.73-3.62 5.43-8 1-2.6.34-2.94 1.25-4.3 2.6-3.84 10.07-4.07 15.39-2.15 1.81.68 6.22-2.71 9.84-.34 4.19 2.95 7 11.21 6.34 12.79-.34.91-2.61 0-7.13.68-4.19.68 1.36 3.85-3.4 4.87-5.65 1.24-7.24.11-8.82 1.92a7.18 7.18 0 0 0-.46 7.92c.8 1.13 1.7 1.47 1.59 2.27-.23 1.47-1.47.67-1.93 2.15-.45 1.69 3.51 4.07 3.17 4.52-.11.11-.34.23-4.3-1.24-1.58-.57-2.15-1.13-2.37-.91s-1.7 3.4-.12 4.75c2.49 2 .8 2.83 1.93 4.53 1.36 1.81-.68.57-2 1.25Z"/>
    <path fill="#ffb6b6" d="M46 319.89c3 5 8.26 7.47 11.43 5.54s3.28-7.69.11-12.67a15.66 15.66 0 0 0-4.87-5l-13.43-21.14-9.85 6.56 14.26 20.14a17.6 17.6 0 0 0 2.35 6.57Z"/>
    <path fill="#4168bb" d="M28.37 216.91s-22.74 4.3-20.71 15.5 14.15 56.36 14.15 56.36L31.88 300 44 291.26l-10.19-40.52c-.23 0-5.44-33.83-5.44-33.83Z"/>
</svg>
